<svg xmlns="http://www.w3.org/2000/svg" xmlns:xlink="http://www.w3.org/1999/xlink" width="108" height="108" viewBox="0 0 108 108">
  <defs>
    <filter id="Fondo" x="0" y="0" width="108" height="108" filterUnits="userSpaceOnUse">
      <feOffset dy="3" input="SourceAlpha"/>
      <feGaussianBlur stdDeviation="3" result="blur"/>
      <feFlood flood-opacity="0.161"/>
      <feComposite operator="in" in2="blur"/>
      <feComposite in="SourceGraphic"/>
    </filter>
  </defs>
  <g id="Group_1144680" data-name="Group 1144680" transform="translate(-588 -4114)">
    <g id="Group_1144659" data-name="Group 1144659">
      <g id="Group_1144594" data-name="Group 1144594">
        <g transform="matrix(1, 0, 0, 1, 588, 4114)" filter="url(#Fondo)">
          <g id="Fondo-2" data-name="Fondo" transform="translate(9 6)" fill="#fff4e4" stroke="#ff9902" stroke-width="3">
            <circle cx="45" cy="45" r="45" stroke="none"/>
            <circle cx="45" cy="45" r="43.5" fill="none"/>
          </g>
        </g>
      </g>
    </g>
    <g id="Group_1144593" data-name="Group 1144593" transform="translate(605.667 4128.631)">
      <path id="Path_979490" data-name="Path 979490" d="M46.371,15.623a14.2,14.2,0,1,0,0,20.079,14.1,14.1,0,0,0,0-20.079ZM33.111,36.681v1.164a12.441,12.441,0,0,1-3.249-1.368V28.251h3.249Zm1.6,1.475V24.4h3.245V38.156a12.784,12.784,0,0,1-3.245,0ZM39.555,23.6V20.586H42.8V36.477a12.438,12.438,0,0,1-3.249,1.368V23.6Zm5.685,10.967q-.4.4-.837.765V19.786a.8.8,0,0,0-.8-.8H38.755a.8.8,0,0,0-.8.8V22.8H33.91a.8.8,0,0,0-.8.8v3.048H29.062a.8.8,0,0,0-.8.8v7.884q-.432-.362-.837-.765a12.613,12.613,0,0,1,0-17.817h0A12.6,12.6,0,0,1,45.239,34.571ZM59.011,62.53V63.9a.8.8,0,1,1-1.6,0V62.53a.8.8,0,0,1,1.6,0Zm-10.557,0V63.9a.8.8,0,1,1-1.6,0V62.53a.8.8,0,0,1,1.6,0Zm11.327-5.317a4.754,4.754,0,0,0,1.237-3.184V50.512a1.966,1.966,0,0,0,0-.674V47.287a8.1,8.1,0,0,0-16.2,0v6.742a4.753,4.753,0,0,0,1.251,3.2c-.145.073-.285.149-.42.228a4.2,4.2,0,0,0-2.435,3.671V63.9a.8.8,0,1,0,1.6,0V61.128c0-1.151.944-2.007,2.253-2.6a4.88,4.88,0,0,0,4.752,3.792h2.348A4.878,4.878,0,0,0,58.9,58.582c1.25.592,2.149,1.432,2.149,2.546V63.9a.8.8,0,0,0,1.6,0V61.128c0-1.632-1.025-2.985-2.87-3.915Zm-3.7-1.119V55.054A6.752,6.752,0,0,0,58,52.322h.9a2.14,2.14,0,0,0,.522-.067v1.773a3.165,3.165,0,0,1-1.287,2.531A15.231,15.231,0,0,0,56.083,56.094Zm-7.243-6.513a5.8,5.8,0,0,0,4.092-2.2,5.8,5.8,0,0,0,4.092,2.2c-.223,2.187-1.4,5-4.092,5S49.064,51.768,48.841,49.581Zm-1.6.044a9.7,9.7,0,0,0,.162,1.1h-.433a.549.549,0,1,1,0-1.1Zm12.181.715a.557.557,0,0,1-.522.383h-.423a9.713,9.713,0,0,0,.155-1.1H58.9a.557.557,0,0,1,.522.386Zm-6.5-9.553a6.507,6.507,0,0,1,6.5,6.5v.805a2.14,2.14,0,0,0-.522-.067H57.865a4.46,4.46,0,0,1-4.24-2.46.8.8,0,0,0-1.385,0A4.46,4.46,0,0,1,48,48.025H46.968a2.141,2.141,0,0,0-.551.074v-.813A6.508,6.508,0,0,1,52.92,40.787Zm-6.5,13.242V52.248a2.142,2.142,0,0,0,.551.074h.912a7.925,7.925,0,0,0,.606,1.221,5.92,5.92,0,0,0,1.553,1.714v.795a15.414,15.414,0,0,0-2.321.519A3.164,3.164,0,0,1,46.417,54.029Zm7.75,6.691H51.819a3.278,3.278,0,0,1-3.229-2.732,15.134,15.134,0,0,1,2.334-.437.8.8,0,0,0,.713-.8v-.739a5.124,5.124,0,0,0,1.3.163,4.988,4.988,0,0,0,1.551-.242v.851a.8.8,0,0,0,.7.794,14.507,14.507,0,0,1,2.2.44A3.275,3.275,0,0,1,54.167,60.72ZM20.533,63.9a.8.8,0,1,1-.8-.8A.8.8,0,0,1,20.533,63.9Zm2.351-9.464v-.541A6.752,6.752,0,0,0,24.8,51.16h.9A2.146,2.146,0,0,0,26.841,47.2l.223-.8c.435-1.564.033-2.253-.5-2.732A3.015,3.015,0,0,0,26.65,40.7c-1.02-1.594-3.873-1.548-6.894-1.5h-.033c-2.1,0-4.887.657-6.432,2.495a4.211,4.211,0,0,0-.943,3.533l.336,1.927a2.146,2.146,0,0,0,1.083,4h.912a7.926,7.926,0,0,0,.606,1.221,5.92,5.92,0,0,0,1.553,1.714v.3a12.407,12.407,0,0,0-4.388,1.4,4.2,4.2,0,0,0-2.435,3.668V63.9a.8.8,0,1,0,1.6,0v-4.43c0-1.63,1.9-2.668,4.046-3.208l1.073,3.564a.8.8,0,0,0,1.3.368l1.834-1.625L21.7,60.191a.8.8,0,0,0,1.3-.369l1.051-3.5c2.03.556,3.808,1.581,3.808,3.145V63.9a.8.8,0,1,0,1.6,0v-4.43c0-2.515-2.44-4.369-6.568-5.034Zm-3.022,1.9-1.372-1.462a5.133,5.133,0,0,0,1.243.15,4.988,4.988,0,0,0,1.551-.242v.036ZM25.7,49.56h-.423a9.713,9.713,0,0,0,.155-1.1H25.7a.549.549,0,1,1,0,1.1Zm-11.93,0a.549.549,0,1,1,0-1.1h.271a9.7,9.7,0,0,0,.162,1.1h-.433ZM14.8,45.8a2.416,2.416,0,0,0-.585.814l-.289-1.657a2.589,2.589,0,0,1,.591-2.229A7.032,7.032,0,0,1,19.729,40.8h.053c2.1-.034,4.982-.079,5.521.763.233.364,0,1.035-.244,1.533a1.28,1.28,0,0,0,.386,1.717c.174.144.324.269.079,1.151l-.105.377a1.783,1.783,0,0,0-1.592-1.335c-.346-.025-.721-.058-1.115-.092C19.881,44.673,16.358,44.368,14.8,45.8Zm.8,1.863a.854.854,0,0,1,.279-.684,5.275,5.275,0,0,1,3.2-.668c1.182,0,2.462.111,3.5.2.4.035.783.068,1.134.093a.176.176,0,0,1,.167.178l-.01.871v.009c0,2.225-1.122,5.755-4.132,5.755S15.6,49.887,15.6,47.663Zm2.3,10.5-.666-2.211.07-.009,1.408,1.5Zm3.917,0-.812-.72,1.376-1.469.089.013Zm-6.566,3.287V63.9a.8.8,0,0,1-1.6,0V61.452a.8.8,0,0,1,1.6,0Zm10.557,0V63.9a.8.8,0,0,1-1.6,0V61.452a.8.8,0,0,1,1.6,0ZM64.358,31.157,58.839,26.85a.8.8,0,0,0-1.292.63v.781H53.775a17.88,17.88,0,0,0,.189-2.6,17.631,17.631,0,0,0-30.1-12.468A17.8,17.8,0,0,0,21.577,16H15.118v-.777a.8.8,0,0,0-1.292-.63L8.308,18.9a.8.8,0,0,0,0,1.261l5.518,4.307a.8.8,0,0,0,1.292-.63v-.777h3.773a17.886,17.886,0,0,0-.189,2.6,17.64,17.64,0,0,0,14.16,17.287v1.495h-.22a.8.8,0,0,0-.8.8v1.288a.8.8,0,0,0-.709.794v2.439a.8.8,0,0,0,.709.794v9.656a4.482,4.482,0,1,0,8.964,0V50.558a.8.8,0,0,0,.709-.794V47.326a.8.8,0,0,0-.709-.794V45.243a.8.8,0,0,0-.8-.8h-.217V42.95A17.47,17.47,0,0,0,48.8,38.127a17.794,17.794,0,0,0,2.29-2.81h6.458V36.1a.8.8,0,0,0,1.292.63l5.518-4.31a.8.8,0,0,0,0-1.261Zm-50.04-9.694a.8.8,0,0,0-.8.74L10.1,19.533l3.421-2.67a.8.8,0,0,0,.8.74h6.324a17.41,17.41,0,0,0-1.44,3.861H14.318ZM32.731,48.125h7.183v.839H32.731Zm6.474-2.082v.483H33.441v-.483Zm0,14.172a2.882,2.882,0,1,1-5.765,0V50.564h5.765ZM47.668,37a15.884,15.884,0,0,1-8.8,4.494.8.8,0,0,0-.675.79v2.164H34.461V42.28a.8.8,0,0,0-.673-.79A16.035,16.035,0,1,1,47.668,37ZM59.145,34.46a.8.8,0,0,0-.8-.742H52.024a17.4,17.4,0,0,0,1.439-3.857h4.885a.8.8,0,0,0,.8-.743l3.421,2.67ZM20.533,61.342a.8.8,0,1,1-.8-.8A.8.8,0,0,1,20.533,61.342ZM55.009,22.263a.8.8,0,1,1,.8.8A.8.8,0,0,1,55.009,22.263Zm2.186,0a.8.8,0,1,1,.8.8A.8.8,0,0,1,57.194,22.263Zm2.189,0a.8.8,0,1,1,.8.8A.8.8,0,0,1,59.384,22.263Zm2.186,0a.8.8,0,1,1,.8.8A.8.8,0,0,1,61.57,22.263Zm-44.713,7.6a.8.8,0,1,1,.8-.8A.8.8,0,0,1,16.857,29.861Zm-2.186,0a.8.8,0,1,1,.8-.8A.8.8,0,0,1,14.671,29.861Zm-2.189,0a.8.8,0,1,1,.8-.8A.8.8,0,0,1,12.482,29.861Zm-2.186,0a.8.8,0,1,1,.8-.8A.8.8,0,0,1,10.3,29.861Z" transform="translate(0)"/>
      <path id="Path_979491" data-name="Path 979491" d="M159.208,362.956h.423a.549.549,0,1,0,0-1.1h-.268A9.716,9.716,0,0,1,159.208,362.956Z" transform="translate(-133.933 -313.396)" fill="#fcc9c0"/>
      <path id="Path_979492" data-name="Path 979492" d="M54.214,361.856a.549.549,0,1,0,0,1.1h.433a9.7,9.7,0,0,1-.162-1.1h-.271Z" transform="translate(-40.446 -313.394)" fill="#fcc9c0"/>
      <path id="Path_979493" data-name="Path 979493" d="M82.79,344.369l.01-.871a.176.176,0,0,0-.167-.178c-.351-.026-.733-.059-1.134-.093-1.036-.09-2.317-.2-3.5-.2a5.276,5.276,0,0,0-3.2.668.854.854,0,0,0-.279.684c0,2.225,1.122,5.755,4.132,5.755s4.132-3.53,4.132-5.755Z" transform="translate(-58.925 -296.715)" fill="#ffdbd3"/>
      <path id="Path_979494" data-name="Path 979494" d="M121.86,429.093l.812.72.653-2.175-.089-.013Z" transform="translate(-100.852 -371.648)" fill="#f96353"/>
      <path id="Path_979495" data-name="Path 979495" d="M68.267,298.814c.393.034.769.066,1.115.092a1.783,1.783,0,0,1,1.592,1.335l.105-.377c.245-.882.095-1.007-.079-1.151a1.28,1.28,0,0,1-.386-1.717c.24-.5.477-1.169.244-1.533-.539-.842-3.418-.8-5.521-.763h-.053a7.032,7.032,0,0,0-5.214,1.925,2.589,2.589,0,0,0-.591,2.229l.289,1.657a2.412,2.412,0,0,1,.585-.814C61.914,298.265,65.437,298.569,68.267,298.814Z" transform="translate(-45.556 -253.896)" fill="#656d78"/>
      <path id="Path_979496" data-name="Path 979496" d="M102.61,417.114a4.989,4.989,0,0,1-1.551.242,5.133,5.133,0,0,1-1.243-.15l1.372,1.462,1.422-1.518v-.036Z" transform="translate(-81.326 -362.339)" fill="#fcc9c0"/>
      <path id="Path_979497" data-name="Path 979497" d="M88.859,427.358l.666,2.211.813-.72-1.409-1.5Z" transform="translate(-71.621 -371.405)" fill="#f96353"/>
      <path id="Path_979498" data-name="Path 979498" d="M347.89,398.007a5.919,5.919,0,0,1-1.553-1.714,7.938,7.938,0,0,1-.606-1.221h-.912a2.141,2.141,0,0,1-.551-.074v1.781a3.164,3.164,0,0,0,1.3,2.542,15.4,15.4,0,0,1,2.321-.519Z" transform="translate(-297.852 -342.75)" fill="#b27946"/>
      <path id="Path_979499" data-name="Path 979499" d="M399.67,197.131a.8.8,0,0,1,.8.742l3.421-2.672-3.421-2.67a.8.8,0,0,1-.8.743h-4.885a17.4,17.4,0,0,1-1.439,3.857Z" transform="translate(-341.322 -163.413)" fill="#b4dd7f"/>
      <path id="Path_979500" data-name="Path 979500" d="M199.363,193.171a12.438,12.438,0,0,0,3.249,1.368v-9.594h-3.249Z" transform="translate(-169.501 -156.694)" fill="#ff826e"/>
      <path id="Path_979501" data-name="Path 979501" d="M230.686,340.682h5.765v.483h-5.765Z" transform="translate(-197.245 -294.639)" fill="#abc5c9"/>
      <path id="Path_979502" data-name="Path 979502" d="M241.8,154.318v10.7a12.784,12.784,0,0,0,3.245,0V151.27H241.8Z" transform="translate(-207.087 -126.866)" fill="#ff826e"/>
      <path id="Path_979503" data-name="Path 979503" d="M350.772,294.675a6.509,6.509,0,0,0-6.5,6.5v.813a2.141,2.141,0,0,1,.551-.074h1.033a4.46,4.46,0,0,0,4.24-2.46.8.8,0,0,1,1.385,0,4.46,4.46,0,0,0,4.24,2.46h1.033a2.142,2.142,0,0,1,.522.067v-.805A6.507,6.507,0,0,0,350.772,294.675Z" transform="translate(-297.852 -253.888)" fill="#b27946"/>
      <path id="Path_979504" data-name="Path 979504" d="M284.2,120.868v14.241a12.44,12.44,0,0,0,3.249-1.368V117.85H284.2Z" transform="translate(-244.648 -97.264)" fill="#ff826e"/>
      <path id="Path_979505" data-name="Path 979505" d="M30.6,89.867H35.48a17.414,17.414,0,0,1,1.44-3.861H30.6a.8.8,0,0,1-.8-.74l-3.421,2.67,3.421,2.67A.8.8,0,0,1,30.6,89.867Z" transform="translate(-16.278 -68.403)" fill="#b4dd7f"/>
      <path id="Path_979506" data-name="Path 979506" d="M149.474,73.508q.4.4.837.765V66.389a.8.8,0,0,1,.8-.8h4.048V62.541a.8.8,0,0,1,.8-.8H160V58.723a.8.8,0,0,1,.8-.8h4.848a.8.8,0,0,1,.8.8v15.55q.432-.362.837-.765a12.6,12.6,0,1,0-17.814-17.817h0A12.613,12.613,0,0,0,149.474,73.508Z" transform="translate(-122.048 -38.937)" fill="#69d6f4"/>
      <path id="Path_979507" data-name="Path 979507" d="M120.366,49.39a15.915,15.915,0,0,0,8.79,4.494.8.8,0,0,1,.673.79v2.164h3.728V54.674a.8.8,0,0,1,.675-.79,16.03,16.03,0,0,0,8.8-27.166A16.031,16.031,0,1,0,120.366,49.39Zm1.3-21.373a14.2,14.2,0,1,1,0,20.079A14.1,14.1,0,0,1,121.664,28.016Z" transform="translate(-95.369 -12.394)" fill="#cfd2d3"/>
      <path id="Path_979508" data-name="Path 979508" d="M230.686,389.9a2.882,2.882,0,1,0,5.765,0v-9.651h-5.765Z" transform="translate(-197.245 -329.69)" fill="#abc5c9"/>
      <path id="Path_979509" data-name="Path 979509" d="M224.478,358.909h7.183v.839h-7.183Z" transform="translate(-191.747 -310.784)" fill="#bacace"/>
      <path id="Path_979510" data-name="Path 979510" d="M345.253,373.131a9.713,9.713,0,0,1-.162-1.1h-.271a.549.549,0,1,0,0,1.1Z" transform="translate(-297.852 -322.408)" fill="#fcc9c0"/>
      <path id="Path_979511" data-name="Path 979511" d="M369.183,428.142v-.851a4.988,4.988,0,0,1-1.551.242,5.124,5.124,0,0,1-1.3-.163v.739a.8.8,0,0,1-.713.8,15.132,15.132,0,0,0-2.334.437,3.278,3.278,0,0,0,3.229,2.732h2.348a3.276,3.276,0,0,0,3.22-2.7,14.508,14.508,0,0,0-2.2-.44A.8.8,0,0,1,369.183,428.142Z" transform="translate(-314.699 -371.353)" fill="#fcc9c0"/>
      <path id="Path_979512" data-name="Path 979512" d="M369.579,359.6c2.687,0,3.869-2.812,4.092-5a5.8,5.8,0,0,1-4.092-2.2,5.8,5.8,0,0,1-4.092,2.2C365.71,356.787,366.891,359.6,369.579,359.6Z" transform="translate(-316.646 -305.019)" fill="#ffdbd3"/>
      <path id="Path_979513" data-name="Path 979513" d="M430.8,395.13a6.752,6.752,0,0,1-1.918,2.732V398.9a15.23,15.23,0,0,1,2.049.467,3.165,3.165,0,0,0,1.287-2.531v-1.773a2.14,2.14,0,0,1-.522.067Z" transform="translate(-372.799 -342.807)" fill="#b27946"/>
      <path id="Path_979514" data-name="Path 979514" d="M450.237,372.033h-.268a9.717,9.717,0,0,1-.155,1.1h.423a.557.557,0,0,0,.522-.383v-.329A.557.557,0,0,0,450.237,372.033Z" transform="translate(-391.339 -322.408)" fill="#fcc9c0"/>
      <g id="Group_1144592" data-name="Group 1144592" transform="translate(10.814 56.259)">
        <path id="Path_979515" data-name="Path 979515" d="M49.667,437.742v-4.43c0-1.563-1.778-2.589-3.808-3.145l-1.051,3.5a.8.8,0,0,1-1.3.369l-1.834-1.625-1.834,1.625a.8.8,0,0,1-1.3-.368L37.474,430.1c-2.148.539-4.046,1.577-4.046,3.208v4.43a.8.8,0,0,1-.8.8h3.64a.8.8,0,0,1-.8-.8V435.3a.8.8,0,1,1,1.6,0v2.445a.8.8,0,0,1-.8.8h5.275a.8.8,0,1,1,.007,0h5.275a.8.8,0,0,1-.8-.8V435.3a.8.8,0,1,1,1.6,0v2.445a.8.8,0,0,1-.8.8h3.64a.8.8,0,0,1-.8-.8Zm-8.119-1.755a.8.8,0,1,1,.8-.8A.8.8,0,0,1,41.548,435.986Z" transform="translate(-32.629 -430.104)" fill="#ff826e"/>
        <path id="Path_979516" data-name="Path 979516" d="M340.275,455.328v-2.769c0-1.114-.9-1.954-2.149-2.546a4.878,4.878,0,0,1-4.736,3.738h-2.348a4.88,4.88,0,0,1-4.752-3.792c-1.309.594-2.253,1.45-2.253,2.6v2.769a.8.8,0,0,1-.8.8h3.64a.8.8,0,0,1-.8-.8v-1.367a.8.8,0,1,1,1.6,0v1.367a.8.8,0,0,1-.8.8h10.557a.8.8,0,0,1-.8-.8v-1.367a.8.8,0,1,1,1.6,0v1.367a.8.8,0,0,1-.8.8h3.64A.8.8,0,0,1,340.275,455.328Z" transform="translate(-290.038 -447.69)" fill="#ff826e"/>
      </g>
    </g>
  </g>
</svg>
