<svg xmlns="http://www.w3.org/2000/svg" xmlns:xlink="http://www.w3.org/1999/xlink" width="108" height="108" viewBox="0 0 108 108">
  <defs>
    <filter id="Path_904820" x="0" y="0" width="108" height="108" filterUnits="userSpaceOnUse">
      <feOffset dy="3" input="SourceAlpha"/>
      <feGaussianBlur stdDeviation="3" result="blur"/>
      <feFlood flood-opacity="0.161"/>
      <feComposite operator="in" in2="blur"/>
      <feComposite in="SourceGraphic"/>
    </filter>
  </defs>
  <g id="Group_1144646" data-name="Group 1144646" transform="translate(-201 -3333)">
    <g id="Group_1144628" data-name="Group 1144628">
      <g transform="matrix(1, 0, 0, 1, 201, 3333)" filter="url(#Path_904820)">
        <g id="Path_904820-2" data-name="Path 904820" transform="translate(9 6)" fill="#ecf4fa">
          <path d="M 45 88.5 C 39.12687683105469 88.5 33.43022537231445 87.35007476806641 28.06830024719238 85.08217620849609 C 22.88852500915527 82.89131164550781 18.23629951477051 79.75458526611328 14.2408504486084 75.75914764404297 C 10.24541282653809 71.76370239257812 7.108687400817871 67.11147308349609 4.917825222015381 61.93170166015625 C 2.649924993515015 56.56977462768555 1.5 50.87312316894531 1.5 45 C 1.5 39.12687683105469 2.649924993515015 33.43022537231445 4.917825222015381 28.06830024719238 C 7.108687400817871 22.88852500915527 10.24541282653809 18.23629951477051 14.2408504486084 14.2408504486084 C 18.23629951477051 10.24541282653809 22.88852500915527 7.108687400817871 28.06830024719238 4.917825222015381 C 33.43022537231445 2.649924993515015 39.12687683105469 1.5 45 1.5 C 50.87312316894531 1.5 56.56977462768555 2.649924993515015 61.93170166015625 4.917825222015381 C 67.11147308349609 7.108687400817871 71.76370239257812 10.24541282653809 75.75914764404297 14.2408504486084 C 79.75458526611328 18.23629951477051 82.89131164550781 22.88852500915527 85.08217620849609 28.06830024719238 C 87.35007476806641 33.43022537231445 88.5 39.12687683105469 88.5 45 C 88.5 50.87312316894531 87.35007476806641 56.56977462768555 85.08217620849609 61.93170166015625 C 82.89131164550781 67.11147308349609 79.75458526611328 71.76370239257812 75.75914764404297 75.75914764404297 C 71.76370239257812 79.75458526611328 67.11147308349609 82.89131164550781 61.93170166015625 85.08217620849609 C 56.56977462768555 87.35007476806641 50.87312316894531 88.5 45 88.5 Z" stroke="none"/>
          <path d="M 45 3 C 39.32871246337891 3 33.82865524291992 4.110054016113281 28.65262985229492 6.299339294433594 C 23.65165710449219 8.414573669433594 19.15968322753906 11.44334411621094 15.301513671875 15.301513671875 C 11.44334411621094 19.15968322753906 8.414573669433594 23.65165710449219 6.299339294433594 28.65262985229492 C 4.110054016113281 33.82865524291992 3 39.32871246337891 3 45 C 3 50.67128753662109 4.110054016113281 56.17134475708008 6.299339294433594 61.34737396240234 C 8.414573669433594 66.34834289550781 11.44334411621094 70.84031677246094 15.301513671875 74.698486328125 C 19.15968322753906 78.55665588378906 23.65165710449219 81.58542633056641 28.65262985229492 83.70066070556641 C 33.82865524291992 85.88994598388672 39.32871246337891 87 45 87 C 50.67128753662109 87 56.17134475708008 85.88994598388672 61.34737396240234 83.70066070556641 C 66.34834289550781 81.58542633056641 70.84031677246094 78.55665588378906 74.698486328125 74.698486328125 C 78.55665588378906 70.84031677246094 81.58542633056641 66.34834289550781 83.70066070556641 61.34737396240234 C 85.88994598388672 56.17134475708008 87 50.67128753662109 87 45 C 87 39.32871246337891 85.88994598388672 33.82865524291992 83.70066070556641 28.65262985229492 C 81.58542633056641 23.65165710449219 78.55665588378906 19.15968322753906 74.698486328125 15.301513671875 C 70.84031677246094 11.44334411621094 66.34834289550781 8.414573669433594 61.34737396240234 6.299339294433594 C 56.17134475708008 4.110054016113281 50.67128753662109 3 45 3 M 45 0 C 69.85281372070312 0 90 20.14718627929688 90 45 C 90 69.85281372070312 69.85281372070312 90 45 90 C 20.14718627929688 90 0 69.85281372070312 0 45 C 0 20.14718627929688 20.14718627929688 0 45 0 Z" stroke="none" fill="#2a5673"/>
        </g>
      </g>
      <g id="_12._Verification" data-name="12. Verification" transform="translate(230.999 3335)">
        <rect id="Rectangle_405417" data-name="Rectangle 405417" width="31.893" height="41.706" rx="15.946" transform="translate(1.255 25.164)" fill="#c1d1f7"/>
        <path id="Path_979623" data-name="Path 979623" d="M38.377,393.688H9.688A1.688,1.688,0,0,1,8,392v2.531a1.688,1.688,0,0,0,1.688,1.688H38.377a1.688,1.688,0,0,0,1.688-1.688V392A1.688,1.688,0,0,1,38.377,393.688Z" transform="translate(-7.156 -329.185)" fill="#adbeee"/>
        <path id="Path_979624" data-name="Path 979624" d="M31.221,67.878H9.282a.844.844,0,1,1,0-1.688H31.221a.844.844,0,0,0,.844-.844V26.531a.844.844,0,0,0-.844-.844H2.531a.844.844,0,0,0-.844.844V65.346a.844.844,0,0,0,.844.844H5.907a.844.844,0,1,1,0,1.688H2.531A2.531,2.531,0,0,1,0,65.346V26.531A2.531,2.531,0,0,1,2.531,24H31.221a2.531,2.531,0,0,1,2.531,2.531V65.346A2.531,2.531,0,0,1,31.221,67.878Z"/>
        <path id="Path_979625" data-name="Path 979625" d="M120.064,88.438V120.5a1.688,1.688,0,0,1-1.688,1.688H89.688A1.688,1.688,0,0,1,88,120.5V81.688A1.688,1.688,0,0,1,89.688,80h21.939Z" transform="translate(-78.718 -50.093)" fill="#eaf2ff"/>
        <path id="Path_979626" data-name="Path 979626" d="M118.377,441.688H89.688A1.688,1.688,0,0,1,88,440v2.531a1.688,1.688,0,0,0,1.688,1.688h28.689a1.688,1.688,0,0,0,1.688-1.688V440A1.688,1.688,0,0,1,118.377,441.688Z" transform="translate(-78.718 -372.122)" fill="#c1d1f7"/>
        <path id="Path_979627" data-name="Path 979627" d="M111.221,115.878H82.531A2.531,2.531,0,0,1,80,113.346V74.531A2.531,2.531,0,0,1,82.531,72H104.47a.844.844,0,0,1,.6.247l8.438,8.438a.844.844,0,0,1,.247.6v3.375a.844.844,0,1,1-1.688,0V81.631l-7.943-7.943H82.531a.844.844,0,0,0-.844.844v38.815a.844.844,0,0,0,.844.844h28.689a.844.844,0,0,0,.844-.844V89.72a.844.844,0,0,1,1.688,0v23.626A2.531,2.531,0,0,1,111.221,115.878Z" transform="translate(-71.562 -42.937)"/>
        <path id="Path_979628" data-name="Path 979628" d="M313.282,82.12h-6.75A2.531,2.531,0,0,1,304,79.588v-6.75a.844.844,0,0,1,1.441-.6l8.438,8.438a.844.844,0,0,1-.6,1.441Zm-7.594-7.245v4.714a.844.844,0,0,0,.844.844h4.714Z" transform="translate(-271.935 -42.931)"/>
        <path id="Path_979629" data-name="Path 979629" d="M320.438,88.438h-6.75A1.688,1.688,0,0,1,312,86.75V80Z" transform="translate(-279.092 -50.093)" fill="#c1d1f7"/>
        <path id="Path_979630" data-name="Path 979630" d="M313.282,82.12h-6.75A2.531,2.531,0,0,1,304,79.588v-6.75a.844.844,0,0,1,1.441-.6l8.438,8.438a.844.844,0,0,1-.6,1.441Zm-7.594-7.245v4.714a.844.844,0,0,0,.844.844h4.714Z" transform="translate(-271.935 -42.931)"/>
        <path id="Path_979631" data-name="Path 979631" d="M136,128h13.5v3.375H136Z" transform="translate(-121.655 -93.031)" fill="#e38343"/>
        <path id="Path_979632" data-name="Path 979632" d="M142.345,125.063h-13.5a.844.844,0,0,1-.844-.844v-3.375a.844.844,0,0,1,.844-.844h13.5a.844.844,0,0,1,.844.844v3.375A.844.844,0,0,1,142.345,125.063Zm-12.657-1.688H141.5v-1.688H129.688Z" transform="translate(-114.499 -85.874)"/>
        <path id="Path_979633" data-name="Path 979633" d="M136,200h5.063v5.063H136Z" transform="translate(-121.655 -157.436)" fill="#b1da7a"/>
        <path id="Path_979634" data-name="Path 979634" d="M133.907,198.75h-5.063a.844.844,0,0,1-.844-.844v-5.063a.844.844,0,0,1,.844-.844h5.063a.844.844,0,0,1,.844.844v5.063A.844.844,0,0,1,133.907,198.75Zm-4.219-1.688h3.375v-3.375h-3.375Z" transform="translate(-114.499 -150.28)"/>
        <path id="Path_979635" data-name="Path 979635" d="M218.969,193.688H208.844a.844.844,0,1,1,0-1.688h10.126a.844.844,0,0,1,0,1.688Z" transform="translate(-186.061 -150.28)"/>
        <path id="Path_979636" data-name="Path 979636" d="M218.969,225.688H208.844a.844.844,0,1,1,0-1.688h10.126a.844.844,0,0,1,0,1.688Z" transform="translate(-186.061 -178.905)"/>
        <path id="Path_979637" data-name="Path 979637" d="M136,288h5.063v5.063H136Z" transform="translate(-121.655 -236.155)" fill="#b1da7a"/>
        <path id="Path_979638" data-name="Path 979638" d="M133.907,286.75h-5.063a.844.844,0,0,1-.844-.844v-5.063a.844.844,0,0,1,.844-.844h5.063a.844.844,0,0,1,.844.844v5.063A.844.844,0,0,1,133.907,286.75Zm-4.219-1.688h3.375v-3.375h-3.375Z" transform="translate(-114.499 -228.998)"/>
        <path id="Path_979639" data-name="Path 979639" d="M218.969,281.688H208.844a.844.844,0,0,1,0-1.688h10.126a.844.844,0,0,1,0,1.688Z" transform="translate(-186.061 -228.998)"/>
        <path id="Path_979640" data-name="Path 979640" d="M218.969,313.688H208.844a.844.844,0,1,1,0-1.688h10.126a.844.844,0,1,1,0,1.688Z" transform="translate(-186.061 -257.623)"/>
        <path id="Path_979641" data-name="Path 979641" d="M136,376h5.063v5.063H136Z" transform="translate(-121.655 -314.873)" fill="#b1da7a"/>
        <path id="Path_979642" data-name="Path 979642" d="M133.907,374.75h-5.063a.844.844,0,0,1-.844-.844v-5.063a.844.844,0,0,1,.844-.844h5.063a.844.844,0,0,1,.844.844v5.063A.844.844,0,0,1,133.907,374.75Zm-4.219-1.688h3.375v-3.375h-3.375Z" transform="translate(-114.499 -307.716)"/>
        <path id="Path_979643" data-name="Path 979643" d="M218.969,369.688H208.844a.844.844,0,0,1,0-1.688h10.126a.844.844,0,0,1,0,1.688Z" transform="translate(-186.061 -307.716)"/>
        <path id="Path_979644" data-name="Path 979644" d="M218.969,401.688H208.844a.844.844,0,1,1,0-1.688h10.126a.844.844,0,0,1,0,1.688Z" transform="translate(-186.061 -336.341)"/>
        <path id="Path_979645" data-name="Path 979645" d="M395.375,368,392,371.375l7.739,7.739a2.387,2.387,0,1,0,3.375-3.375Z" transform="translate(-350.654 -307.716)" fill="#e38343"/>
        <path id="Path_979646" data-name="Path 979646" d="M401.426,391.739,393.688,384,392,385.688l7.739,7.739a2.389,2.389,0,0,0,3.993-1.069A2.389,2.389,0,0,1,401.426,391.739Z" transform="translate(-350.654 -322.029)" fill="#df6117"/>
        <path id="Path_979647" data-name="Path 979647" d="M394.264,373.468a3.209,3.209,0,0,1-2.284-.949l-7.74-7.739a.844.844,0,0,1,0-1.194l3.375-3.375a.844.844,0,0,1,1.194,0l7.736,7.743a3.23,3.23,0,0,1-2.281,5.514Zm-8.233-9.282,7.14,7.143a1.545,1.545,0,1,0,2.185-2.185L388.213,362Z" transform="translate(-343.492 -300.528)"/>
        <circle id="Ellipse_11574" data-name="Ellipse 11574" cx="10.426" cy="10.426" r="10.426" transform="translate(25.788 44.79)" fill="#596060"/>
        <path id="Path_979648" data-name="Path 979648" d="M250.967,317.7a10.97,10.97,0,0,1-10.9-9.7,10.969,10.969,0,1,0,21.793,0A10.969,10.969,0,0,1,250.967,317.7Z" transform="translate(-214.684 -254.041)" fill="#4c5657"/>
        <path id="Path_979649" data-name="Path 979649" d="M243.813,231.626a11.813,11.813,0,1,1,11.813-11.813A11.813,11.813,0,0,1,243.813,231.626Zm0-21.939a10.126,10.126,0,1,0,10.126,10.126A10.126,10.126,0,0,0,243.813,209.688Z" transform="translate(-207.53 -164.593)"/>
        <circle id="Ellipse_11575" data-name="Ellipse 11575" cx="7.973" cy="7.973" r="7.973" transform="translate(28.241 47.243)" fill="#b1da7a"/>
        <path id="Path_979650" data-name="Path 979650" d="M279.593,250.575a7.594,7.594,0,0,1,7.489,6.329,7.594,7.594,0,1,0-14.978,0A7.594,7.594,0,0,1,279.593,250.575Z" transform="translate(-243.309 -200.417)" fill="#96bf5b"/>
        <path id="Path_979651" data-name="Path 979651" d="M272.438,256.876a8.438,8.438,0,1,1,8.438-8.438A8.438,8.438,0,0,1,272.438,256.876Zm0-15.188a6.75,6.75,0,1,0,6.75,6.75A6.75,6.75,0,0,0,272.438,241.688Z" transform="translate(-236.154 -193.217)"/>
        <path id="Path_979652" data-name="Path 979652" d="M314.774,301.656l-2.531-2.531a.844.844,0,0,1,1.194-1.194l1.934,1.935,3.622-3.623a.844.844,0,1,1,1.194,1.194l-4.219,4.219a.844.844,0,0,1-1.194,0Z" transform="translate(-279.088 -243.307)"/>
      </g>
    </g>
  </g>
</svg>
