<svg xmlns="http://www.w3.org/2000/svg" xmlns:xlink="http://www.w3.org/1999/xlink" width="108" height="108" viewBox="0 0 108 108">
  <defs>
    <filter id="Fondo" x="0" y="0" width="108" height="108" filterUnits="userSpaceOnUse">
      <feOffset dy="3" input="SourceAlpha"/>
      <feGaussianBlur stdDeviation="3" result="blur"/>
      <feFlood flood-opacity="0.161"/>
      <feComposite operator="in" in2="blur"/>
      <feComposite in="SourceGraphic"/>
    </filter>
  </defs>
  <g id="Group_1144655" data-name="Group 1144655" transform="translate(-745.999 -1493)">
    <g id="Group_1144578" data-name="Group 1144578" transform="translate(-420)">
      <g transform="matrix(1, 0, 0, 1, 1166, 1493)" filter="url(#Fondo)">
        <g id="Fondo-2" data-name="Fondo" transform="translate(9 6)" fill="#fff4e4" stroke="#ff9902" stroke-width="3">
          <circle cx="45" cy="45" r="45" stroke="none"/>
          <circle cx="45" cy="45" r="43.5" fill="none"/>
        </g>
      </g>
      <g id="Group_1144576" data-name="Group 1144576" transform="translate(1228.332 1552.302)">
        <g id="Group_1144575" data-name="Group 1144575" transform="translate(-35.334 -35.301)">
          <g id="Group_1144571" data-name="Group 1144571" transform="translate(0 0)">
            <circle id="Ellipse_11559" data-name="Ellipse 11559" cx="10.321" cy="10.321" r="10.321" transform="translate(0 14.594) rotate(-45)" fill="#60b7ff"/>
            <circle id="Ellipse_11560" data-name="Ellipse 11560" cx="9.039" cy="9.039" r="9.039" transform="translate(5.558 5.555)" fill="#8ac9fe"/>
            <path id="Path_979410" data-name="Path 979410" d="M112.609,112.618H122.93a10.316,10.316,0,0,1-5.16,8.939Z" transform="translate(-98.013 -98.024)" fill="#fd4755" fill-rule="evenodd"/>
            <path id="Path_979411" data-name="Path 979411" d="M112.609,112.618h9.039a9.035,9.035,0,0,1-4.519,7.829Z" transform="translate(-98.013 -98.024)" fill="#fe646f" fill-rule="evenodd"/>
            <path id="Path_979412" data-name="Path 979412" d="M122.93,18.329H112.609V8.008A10.321,10.321,0,0,1,122.93,18.329Z" transform="translate(-98.013 -3.735)" fill="#ffd064" fill-rule="evenodd"/>
            <path id="Path_979413" data-name="Path 979413" d="M121.648,30.045h-9.039V21.006A9.039,9.039,0,0,1,121.648,30.045Z" transform="translate(-98.013 -15.451)" fill="#ffe177" fill-rule="evenodd"/>
          </g>
          <g id="Group_1144572" data-name="Group 1144572" transform="translate(29.805 4)">
            <path id="Path_979414" data-name="Path 979414" d="M267.871,5.245h2.662a1.113,1.113,0,0,1,1.111,1.111V9.018a1.113,1.113,0,0,1-1.111,1.111h-2.662a1.113,1.113,0,0,1-1.111-1.111V6.356A1.113,1.113,0,0,1,267.871,5.245Z" transform="translate(-266.76 -5.245)" fill="#8ac9fe" fill-rule="evenodd"/>
            <path id="Path_979415" data-name="Path 979415" d="M267.871,87.87h2.662a1.113,1.113,0,0,1,1.111,1.111v2.662a1.113,1.113,0,0,1-1.111,1.111h-2.662a1.113,1.113,0,0,1-1.111-1.111V88.981a1.113,1.113,0,0,1,1.111-1.111Z" transform="translate(-266.76 -79.718)" fill="#ffe177" fill-rule="evenodd"/>
            <path id="Path_979416" data-name="Path 979416" d="M267.871,170.495h2.662a1.113,1.113,0,0,1,1.111,1.111v2.662a1.113,1.113,0,0,1-1.111,1.111h-2.662a1.113,1.113,0,0,1-1.111-1.111v-2.662A1.113,1.113,0,0,1,267.871,170.495Z" transform="translate(-266.76 -154.191)" fill="#fe646f" fill-rule="evenodd"/>
          </g>
          <g id="Group_1144573" data-name="Group 1144573" transform="translate(4.275 30.581)">
            <path id="Path_979417" data-name="Path 979417" d="M198,348.359h3.277a.988.988,0,0,1,.987.987v13.383a.988.988,0,0,1-.987.987H198a.988.988,0,0,1-.987-.987V349.346A.988.988,0,0,1,198,348.359Z" transform="translate(-178.365 -341.087)" fill="#ffe177" fill-rule="evenodd"/>
            <path id="Path_979418" data-name="Path 979418" d="M201.277,348.359a.988.988,0,0,1,.987.987v13.383a.988.988,0,0,1-.987.987H198a.988.988,0,0,1-.987-.987h3.277a.988.988,0,0,0,.987-.987Z" transform="translate(-178.365 -341.087)" fill="#ffd064" fill-rule="evenodd"/>
            <path id="Path_979419" data-name="Path 979419" d="M294.586,348.359h3.277a.989.989,0,0,1,.987.987v13.383a.988.988,0,0,1-.987.987h-3.277a.988.988,0,0,1-.987-.987V349.346A.988.988,0,0,1,294.586,348.359Z" transform="translate(-265.422 -341.087)" fill="#fe646f" fill-rule="evenodd"/>
            <path id="Path_979420" data-name="Path 979420" d="M297.863,348.359a.989.989,0,0,1,.987.987v13.383a.988.988,0,0,1-.987.987h-3.277a.988.988,0,0,1-.987-.987h3.277a.988.988,0,0,0,.987-.987Z" transform="translate(-265.422 -341.087)" fill="#fd4755" fill-rule="evenodd"/>
            <path id="Path_979421" data-name="Path 979421" d="M8.988,321.359h3.277a.988.988,0,0,1,.987.987v16.047a.988.988,0,0,1-.987.987H8.988A.988.988,0,0,1,8,338.393V322.346A.989.989,0,0,1,8.988,321.359Z" transform="translate(-8.001 -316.751)" fill="#6cf5c2" fill-rule="evenodd"/>
            <path id="Path_979422" data-name="Path 979422" d="M12.265,321.359a.988.988,0,0,1,.987.987v16.047a.988.988,0,0,1-.987.987H8.988A.988.988,0,0,1,8,338.393h3.277a.989.989,0,0,0,.987-.987Z" transform="translate(-8.001 -316.751)" fill="#00e499" fill-rule="evenodd"/>
            <path id="Path_979423" data-name="Path 979423" d="M101.414,274.655h3.277a.988.988,0,0,1,.987.987V296.3a.988.988,0,0,1-.987.987h-3.277a.988.988,0,0,1-.987-.987V275.642A.989.989,0,0,1,101.414,274.655Z" transform="translate(-91.308 -274.655)" fill="#8ac9fe" fill-rule="evenodd"/>
            <path id="Path_979424" data-name="Path 979424" d="M104.691,274.655a.988.988,0,0,1,.987.987V296.3a.988.988,0,0,1-.987.987h-3.277a.988.988,0,0,1-.987-.987H103.7a.989.989,0,0,0,.987-.987Z" transform="translate(-91.308 -274.655)" fill="#60b7ff" fill-rule="evenodd"/>
          </g>
          <g id="Group_1144574" data-name="Group 1144574" transform="translate(20.042 19.008)">
            <path id="Path_979425" data-name="Path 979425" d="M374.948,354.859a10.219,10.219,0,0,1-1.725,1.9l4.69,4.6,1.785-1.84Z" transform="translate(-352.956 -335.373)" fill="#a79ba7" fill-rule="evenodd"/>
            <path id="Path_979426" data-name="Path 979426" d="M386.36,354.538a1.178,1.178,0,0,1-.51.685l4.659,4.628.571-.625Z" transform="translate(-364.337 -335.084)" fill="#837683" fill-rule="evenodd"/>
            <path id="Path_979427" data-name="Path 979427" d="M415.474,398.425l2.015-2.077a.927.927,0,0,0-.02-1.306l-5.581-5.415a.927.927,0,0,0-1.306.02l-2.015,2.077a.927.927,0,0,0,.02,1.306l5.581,5.415A.926.926,0,0,0,415.474,398.425Z" transform="translate(-384.579 -366.477)" fill="#f1ba84" fill-rule="evenodd"/>
            <path id="Path_979428" data-name="Path 979428" d="M434.13,389.627l5.581,5.415a.927.927,0,0,1,.02,1.306l-2.015,2.077a.917.917,0,0,1-.25.183.928.928,0,0,0,1.076-.183l2.015-2.077a.927.927,0,0,0-.02-1.306l-5.581-5.415a.927.927,0,0,0-1.056-.163A.911.911,0,0,1,434.13,389.627Z" transform="translate(-407.646 -366.477)" fill="#e3a76f" fill-rule="evenodd"/>
            <circle id="Ellipse_11561" data-name="Ellipse 11561" cx="10.162" cy="10.162" r="10.162" transform="translate(0 14.37) rotate(-45)" fill="#8ac9fe"/>
            <path id="Path_979429" data-name="Path 979429" d="M309.008,200a10.162,10.162,0,1,1,0,20.325q-.248,0-.493-.012a10.162,10.162,0,0,0,0-20.3C308.678,200.005,308.843,200,309.008,200Z" transform="translate(-294.632 -195.794)" fill="#60b7ff" fill-rule="evenodd"/>
            <circle id="Ellipse_11562" data-name="Ellipse 11562" cx="7.297" cy="7.297" r="7.297" transform="translate(4.051 14.37) rotate(-45)" fill="#eceff1"/>
            <path id="Path_979430" data-name="Path 979430" d="M246.849,229.042c.166,0,.33.006.493.017a7.3,7.3,0,0,0,0,14.561c-.163.011-.327.017-.493.017a7.3,7.3,0,0,1,0-14.595Z" transform="translate(-232.473 -221.97)" fill="#d1d1d6" fill-rule="evenodd"/>
          </g>
        </g>
        <path id="Path_979431" data-name="Path 979431" d="M14.371,48.944H10.7V27.895h3.672Zm.79-22.628H9.91a.789.789,0,0,0-.789.789V49.733a.789.789,0,0,0,.789.789h5.251a.79.79,0,0,0,.789-.789V27.1a.79.79,0,0,0-.789-.789Zm15.772-2.922A6.508,6.508,0,1,1,24.425,29.9a6.515,6.515,0,0,1,6.508-6.508Zm0,14.594A8.087,8.087,0,1,0,22.847,29.9,8.1,8.1,0,0,0,30.933,37.989ZM48.9,44.855l-2.016,2.077a.139.139,0,0,1-.19,0l-5.58-5.415a.13.13,0,0,1-.04-.095.126.126,0,0,1,.037-.1l2.014-2.077a.134.134,0,0,1,.095-.04h0a.132.132,0,0,1,.094.037L48.9,44.664A.139.139,0,0,1,48.9,44.855ZM33.43,48.944H29.758V40.791a10.988,10.988,0,0,0,3.672-.224v8.377Zm-9.53,0H20.228V35.166h1.1A11.024,11.024,0,0,0,23.9,38.291Zm7.033-28.415A9.373,9.373,0,1,0,40.307,29.9,9.384,9.384,0,0,0,30.933,20.529ZM27.382,17.89h2.76v1.089a10.868,10.868,0,0,0-2.76.563ZM41.33,38.837l-.687.706-1.964-1.906q.348-.349.664-.728ZM50,43.532l-5.581-5.416a1.715,1.715,0,0,0-1.9-.329l-2.24-2.173a10.933,10.933,0,0,0-2.079-13.9h3.9a.789.789,0,0,0,0-1.579H35.881a10.865,10.865,0,0,0-4.16-1.154V17.1a.789.789,0,0,0-.789-.79H26.593a.789.789,0,0,0-.789.79v3.127A10.951,10.951,0,0,0,20.62,33.587H19.439a.789.789,0,0,0-.789.789V49.733a.789.789,0,0,0,.789.789H24.69a.789.789,0,0,0,.789-.789V39.4a10.873,10.873,0,0,0,2.7,1.106v9.231a.789.789,0,0,0,.789.789h5.251a.789.789,0,0,0,.789-.789V40.067a10.933,10.933,0,0,0,2.473-1.392l2.148,2.085a1.717,1.717,0,0,0,.387,1.891L45.6,48.067a1.716,1.716,0,0,0,2.423-.037l2.015-2.077A1.715,1.715,0,0,0,50,43.532ZM5.253,48.944H1.581V32.5H5.253Zm.789-18.02H.791A.789.789,0,0,0,0,31.713v18.02a.789.789,0,0,0,.789.789H6.042a.789.789,0,0,0,.789-.789V31.713a.789.789,0,0,0-.789-.789ZM33.668,17.618a.789.789,0,0,1,.789-.789h15.27a.789.789,0,1,1,0,1.578H34.457a.79.79,0,0,1-.789-.789ZM27.382,9.739h2.76V12.5h-2.76Zm-.789,4.338h4.338a.789.789,0,0,0,.789-.789V8.949a.789.789,0,0,0-.789-.789H26.593a.789.789,0,0,0-.789.789v4.338A.789.789,0,0,0,26.593,14.077Zm7.075-1.306a.79.79,0,0,1,.789-.789h7.636a.789.789,0,0,1,0,1.579H34.457a.79.79,0,0,1-.789-.789Zm0-3.3a.79.79,0,0,1,.789-.789h15.27a.789.789,0,1,1,0,1.579H34.457a.79.79,0,0,1-.789-.789ZM27.382,1.587h2.76V4.346h-2.76Zm-.789,4.338h4.338a.789.789,0,0,0,.789-.789V.8a.789.789,0,0,0-.789-.789H26.593A.789.789,0,0,0,25.8.8V5.135A.789.789,0,0,0,26.593,5.925Zm7.075-1.306a.79.79,0,0,1,.789-.789h7.636a.789.789,0,0,1,0,1.579H34.457a.79.79,0,0,1-.789-.789Zm0-3.3a.79.79,0,0,1,.789-.789h15.27a.789.789,0,1,1,0,1.579H34.457a.79.79,0,0,1-.789-.789ZM10.323,1.62v9.5a.789.789,0,0,0,.109.4l4.814,8.188A9.531,9.531,0,1,1,10.323,1.62Zm10.289,8.714A9.548,9.548,0,0,0,11.9,1.62v8.71ZM16.6,18.9l-4.113-7,8.119,0A9.534,9.534,0,0,1,16.6,18.9Zm-5.493,3.324a11.11,11.11,0,1,1,11.11-11.11A11.123,11.123,0,0,1,11.112,22.228Z" transform="translate(-31.849 -31.825)" fill-rule="evenodd"/>
      </g>
    </g>
  </g>
</svg>
