<svg xmlns="http://www.w3.org/2000/svg" xmlns:xlink="http://www.w3.org/1999/xlink" width="108" height="108" viewBox="0 0 108 108">
  <defs>
    <filter id="Fondo" x="0" y="0" width="108" height="108" filterUnits="userSpaceOnUse">
      <feOffset dy="3" input="SourceAlpha"/>
      <feGaussianBlur stdDeviation="3" result="blur"/>
      <feFlood flood-opacity="0.161"/>
      <feComposite operator="in" in2="blur"/>
      <feComposite in="SourceGraphic"/>
    </filter>
  </defs>
  <g id="Group_1144654" data-name="Group 1144654" transform="translate(-325.999 -1493)">
    <g id="Group_1144570" data-name="Group 1144570">
      <g transform="matrix(1, 0, 0, 1, 326, 1493)" filter="url(#Fondo)">
        <g id="Fondo-2" data-name="Fondo" transform="translate(9 6)" fill="#fff4e4" stroke="#ff9902" stroke-width="3">
          <circle cx="45" cy="45" r="45" stroke="none"/>
          <circle cx="45" cy="45" r="43.5" fill="none"/>
        </g>
      </g>
      <g id="_x31_9_Know_How" transform="translate(353.796 1515.734)">
        <g id="Group_1144569" data-name="Group 1144569" transform="translate(0 0.9)">
          <g id="Group_1144564" data-name="Group 1144564" transform="translate(0.881 0.881)">
            <path id="Path_979400" data-name="Path 979400" d="M12.9,1.9H44.188V44.646H12.9Z" transform="translate(-2.412 -1.9)" fill="#fff"/>
            <g id="Group_1144563" data-name="Group 1144563">
              <path id="Path_979401" data-name="Path 979401" d="M11.488,1.9H6.2A5.135,5.135,0,0,0,1,7.012V49.758a5.209,5.209,0,0,1,5.2-5.2h5.288Z" transform="translate(-1 -1.9)" fill="#4de2c9"/>
            </g>
            <path id="Path_979402" data-name="Path 979402" d="M42.776,60.712a9.867,9.867,0,0,1,0-10.312H6.2A5.154,5.154,0,0,0,1,55.6a5.209,5.209,0,0,0,5.2,5.2Z" transform="translate(-1 -7.654)" fill="#fff"/>
          </g>
          <g id="Group_1144565" data-name="Group 1144565" transform="translate(38.93 36.664)">
            <path id="Path_979403" data-name="Path 979403" d="M51.6,56.073a3.714,3.714,0,1,1-7.4-.441L45.607,42.5h4.671C51.6,56.161,51.6,55.72,51.6,56.073Z" transform="translate(-44.17 -42.5)" fill="#ffcd7e"/>
          </g>
          <path id="Path_979404" data-name="Path 979404" d="M51.985,37.7v2.468a1.768,1.768,0,0,1-1.763,1.763H45.463A1.768,1.768,0,0,1,43.7,40.168V37.7a12.521,12.521,0,0,0,8.285,0Z" transform="translate(-5.185 -5.266)" fill="#fff"/>
          <g id="Group_1144566" data-name="Group 1144566" transform="translate(29.79 7.403)">
            <path id="Path_979405" data-name="Path 979405" d="M59.536,22.168A12.868,12.868,0,1,1,46.668,9.3,12.827,12.827,0,0,1,59.536,22.168Z" transform="translate(-33.8 -9.3)" fill="#ff787d"/>
          </g>
          <g id="Group_1144568" data-name="Group 1144568">
            <path id="Path_979406" data-name="Path 979406" d="M56.408,22.654A9.254,9.254,0,1,1,47.154,13.4a9.253,9.253,0,0,1,9.254,9.254Z" transform="translate(-4.497 -2.383)" fill="#fff"/>
            <g id="Group_1144567" data-name="Group 1144567">
              <path id="Path_979407" data-name="Path 979407" d="M23.081,10.063H36.214a.833.833,0,0,0,.881-.881.833.833,0,0,0-.881-.881H23.081a.833.833,0,0,0-.881.881A.833.833,0,0,0,23.081,10.063Z" transform="translate(-2.634 -1.778)" fill="#33226e"/>
              <path id="Path_979408" data-name="Path 979408" d="M56.407,21.171A13.786,13.786,0,0,0,43.539,7.422V1.781A.833.833,0,0,0,42.658.9H6.081A6.076,6.076,0,0,0,0,6.893V49.639a6,6,0,0,0,5.993,5.993H42.569a4.552,4.552,0,0,0,4.583-4.583c0-.353,0,0-1.322-12.868a2.686,2.686,0,0,0,1.763-2.468V33.775a13.289,13.289,0,0,0,8.814-12.6ZM41.776,7.422a13.959,13.959,0,0,0-9.254,4.407H17.363a.881.881,0,0,0,0,1.763H31.2a26.558,26.558,0,0,0-1.41,2.732H17.363a.881.881,0,0,0,0,1.763h11.9a13.624,13.624,0,0,0-.353,2.732H20.447a.881.881,0,1,0,0,1.763H29a13.76,13.76,0,0,0,8.637,11.369V35.89A2.567,2.567,0,0,0,39.4,38.358l-.617,5.288H12.251V2.663H41.776Zm3.261,29.261H40.278A.883.883,0,0,1,39.4,35.8V34.48a13.6,13.6,0,0,0,6.522,0V35.8A.883.883,0,0,1,45.037,36.683ZM1.763,6.893A4.308,4.308,0,0,1,5.993,2.575H10.4V43.558H5.993A5.993,5.993,0,0,0,1.763,45.32Zm0,42.834A4.231,4.231,0,0,1,5.993,45.5H38.515l-.353,3.349H11.281a.883.883,0,0,0-.881.881.833.833,0,0,0,.881.881H37.986a4.473,4.473,0,0,0,.969,3.437H6.081a4.444,4.444,0,0,1-4.319-4.319Zm40.895,4.231a2.815,2.815,0,0,1-2.115-.969,2.9,2.9,0,0,1-.705-2.2l1.322-12.339h3.085c.969,9.783,1.322,12.515,1.322,12.692a2.917,2.917,0,0,1-2.908,2.82Zm0-20.8A11.986,11.986,0,1,1,54.644,21.171,12,12,0,0,1,42.658,33.158Z" transform="translate(0 -0.9)" fill="#33226e"/>
              <path id="Path_979409" data-name="Path 979409" d="M47.036,12.4A10.136,10.136,0,1,0,57.171,22.536,10.194,10.194,0,0,0,47.036,12.4Zm0,18.508a8.373,8.373,0,1,1,8.373-8.373A8.426,8.426,0,0,1,47.036,30.908Z" transform="translate(-4.378 -2.264)" fill="#33226e"/>
            </g>
          </g>
        </g>
      </g>
    </g>
  </g>
</svg>
