<svg xmlns="http://www.w3.org/2000/svg" xmlns:xlink="http://www.w3.org/1999/xlink" width="108" height="108" viewBox="0 0 108 108">
  <defs>
    <filter id="Fondo" x="0" y="0" width="108" height="108" filterUnits="userSpaceOnUse">
      <feOffset dy="3" input="SourceAlpha"/>
      <feGaussianBlur stdDeviation="3" result="blur"/>
      <feFlood flood-opacity="0.161"/>
      <feComposite operator="in" in2="blur"/>
      <feComposite in="SourceGraphic"/>
    </filter>
  </defs>
  <g id="Group_1144667" data-name="Group 1144667" transform="translate(-325.999 -1077)">
    <g id="Group_1144607" data-name="Group 1144607">
      <g transform="matrix(1, 0, 0, 1, 326, 1077)" filter="url(#Fondo)">
        <g id="Fondo-2" data-name="Fondo" transform="translate(9 6)" fill="#ffeacb" stroke="#ff9902" stroke-width="3">
          <circle cx="45" cy="45" r="45" stroke="none"/>
          <circle cx="45" cy="45" r="43.5" fill="none"/>
        </g>
      </g>
      <g id="Group_1144606" data-name="Group 1144606" transform="translate(352.109 1096.347)">
        <g id="Group_1144604" data-name="Group 1144604" transform="translate(0.829 9.677)">
          <path id="Path_979538" data-name="Path 979538" d="M269.1,148.093H243.6v38.344a.435.435,0,0,0,.374-.219,2.723,2.723,0,0,1,2.352-1.348H269.1Z" transform="translate(-217.502 -139.503)" fill="#0078c8"/>
          <g id="Group_1144602" data-name="Group 1144602" transform="translate(46.887 8.59)">
            <path id="Path_979539" data-name="Path 979539" d="M436.285,148.092H431.6a.63.63,0,0,1,.63.63v35.516a.63.63,0,0,1-.63.63h4.689a.63.63,0,0,0,.63-.63V148.722A.63.63,0,0,0,436.285,148.092Z" transform="translate(-431.596 -148.092)" fill="#0268b4"/>
          </g>
          <path id="Path_979540" data-name="Path 979540" d="M265.295,129.239H245.181a1.576,1.576,0,0,0-1.576,1.576v33.9h.255a1.573,1.573,0,0,1,1.32-.717h20.114Z" transform="translate(-217.502 -122.734)" fill="#d5e3f4"/>
          <path id="Path_979541" data-name="Path 979541" d="M33.6,186.436V148.092H8.13a.63.63,0,0,0-.63.63v35.516a.63.63,0,0,0,.63.63H30.878a2.724,2.724,0,0,1,2.352,1.348A.435.435,0,0,0,33.6,186.436Z" transform="translate(-7.5 -139.502)" fill="#0268b4"/>
          <path id="Path_979542" data-name="Path 979542" d="M300.04,333.3H288.953a.856.856,0,0,1-.856-.856v-8.315a.856.856,0,0,1,.856-.856H300.04a.856.856,0,0,1,.856.856v8.315A.856.856,0,0,1,300.04,333.3Z" transform="translate(-257.075 -295.318)" fill="#f47c7c"/>
          <path id="Path_979543" data-name="Path 979543" d="M61.235,164.716h.255v-33.9a1.576,1.576,0,0,0-1.576-1.576H39.589a.735.735,0,0,0-.735.735v33.289a.735.735,0,0,0,.735.735H59.915A1.573,1.573,0,0,1,61.235,164.716Z" transform="translate(-35.388 -122.734)" fill="#b3dafe"/>
          <path id="Path_979544" data-name="Path 979544" d="M155.584,292.12v6.114l3.631-2.557a.611.611,0,0,0,0-1Z" transform="translate(-139.212 -267.607)" fill="#e5eef9"/>
          <g id="Group_1144603" data-name="Group 1144603" transform="translate(44.253 6.505)">
            <path id="Path_979545" data-name="Path 979545" d="M411.526,129.239h-3.751a.735.735,0,0,1,.735.735v33.289a.735.735,0,0,1-.735.735h3.751a.735.735,0,0,0,.735-.735V129.974A.735.735,0,0,0,411.526,129.239Z" transform="translate(-407.775 -129.239)" fill="#b3dafe"/>
          </g>
          <path id="Path_979546" data-name="Path 979546" d="M328.444,85.483H334.6a8.414,8.414,0,0,1,1.946-3.188,7.011,7.011,0,1,0-10.051,0,8.41,8.41,0,0,1,1.945,3.187Z" transform="translate(-289.466 -70.399)" fill="#fdb97e"/>
          <path id="Path_979547" data-name="Path 979547" d="M360.063,206.83h6.161v2.523a3.08,3.08,0,1,1-6.161,0Z" transform="translate(-321.084 -191.747)" fill="#678d98"/>
          <path id="Path_979548" data-name="Path 979548" d="M382.326,77.106a7.013,7.013,0,0,0-8.571-6.529A7.008,7.008,0,0,1,377.222,82.3a8.414,8.414,0,0,0-1.946,3.188H378.4a8.414,8.414,0,0,1,1.946-3.188A6.986,6.986,0,0,0,382.326,77.106Z" transform="translate(-333.263 -70.4)" fill="#fea95c"/>
          <path id="Path_979549" data-name="Path 979549" d="M375.3,206.83v2.523a3.078,3.078,0,0,1-1.517,2.654,3.08,3.08,0,0,0,4.643-2.654V206.83Z" transform="translate(-333.291 -191.747)" fill="#537983"/>
          <path id="Path_979550" data-name="Path 979550" d="M155.584,292.12v6.114l3.631-2.557a.611.611,0,0,0,0-1Z" transform="translate(-139.212 -267.607)" fill="#f9c6c6"/>
          <path id="Path_979551" data-name="Path 979551" d="M159.214,295.677a.611.611,0,0,0,0-1l-3.631-2.557v2.813l2.343,1.65Z" transform="translate(-139.211 -267.607)" fill="#f9b1b1"/>
          <path id="Path_979552" data-name="Path 979552" d="M8.478,292.079a.978.978,0,0,0-.978.978v2.818a.978.978,0,0,1,.978-.978h3.9v-2.818Z" transform="translate(-7.5 -267.571)" fill="#e94444"/>
          <path id="Path_979553" data-name="Path 979553" d="M51.614,297.776H63.109v5.489H51.614Z" transform="translate(-46.737 -272.638)" fill="#d83131"/>
          <path id="Path_979554" data-name="Path 979554" d="M7.5,298.754v3.532a.978.978,0,0,0,.978.978h3.9v-5.489h-3.9A.978.978,0,0,0,7.5,298.754Z" transform="translate(-7.5 -272.638)" fill="#f47c7c"/>
          <path id="Path_979555" data-name="Path 979555" d="M51.614,292.12H63.109v2.813H51.614Z" transform="translate(-46.737 -267.607)" fill="#ca2c2c"/>
          <path id="Path_979556" data-name="Path 979556" d="M7.5,293.1v2.814a.978.978,0,0,1,.978-.978h3.9V292.12h-3.9A.978.978,0,0,0,7.5,293.1Z" transform="translate(-7.5 -267.607)" fill="#ee6161"/>
        </g>
        <g id="Group_1144605" data-name="Group 1144605" transform="translate(0 2.129)">
          <path id="Path_979557" data-name="Path 979557" d="M279.06,280.734h13.166a.917.917,0,0,0,0-1.834H279.06a.917.917,0,0,0,0,1.834Z" transform="translate(-247.392 -248.301)"/>
          <path id="Path_979558" data-name="Path 979558" d="M293.369,315.774H282.282a1.687,1.687,0,0,0-1.685,1.685v8.315a1.687,1.687,0,0,0,1.685,1.685h11.087a1.687,1.687,0,0,0,1.685-1.685v-8.315A1.687,1.687,0,0,0,293.369,315.774Zm.027,10a.027.027,0,0,1-.027.027H282.282a.027.027,0,0,1-.027-.027v-8.315a.027.027,0,0,1,.027-.027h11.087a.027.027,0,0,1,.027.027v8.315Z" transform="translate(-249.575 -281.098)"/>
          <path id="Path_979559" data-name="Path 979559" d="M381.255,6.231a.829.829,0,0,0,.829-.829V2.958a.829.829,0,1,0-1.658,0V5.4A.829.829,0,0,0,381.255,6.231Z" transform="translate(-338.367 -2.129)"/>
          <path id="Path_979560" data-name="Path 979560" d="M314.914,26.456a.829.829,0,1,0,1.173-1.173l-1.727-1.728a.829.829,0,0,0-1.173,1.173Z" transform="translate(-278.345 -20.971)"/>
          <path id="Path_979561" data-name="Path 979561" d="M433.113,26.7a.826.826,0,0,0,.586-.243l1.728-1.727a.829.829,0,0,0-1.173-1.173l-1.728,1.727a.829.829,0,0,0,.586,1.415Z" transform="translate(-384.491 -20.972)"/>
          <path id="Path_979562" data-name="Path 979562" d="M470.693,82.627H468.25a.829.829,0,0,0,0,1.658h2.443a.829.829,0,0,0,0-1.658Z" transform="translate(-415.744 -73.727)"/>
          <path id="Path_979563" data-name="Path 979563" d="M272.161,84.285H274.6a.829.829,0,1,0,0-1.658h-2.443a.829.829,0,1,0,0,1.658Z" transform="translate(-241.334 -73.727)"/>
          <path id="Path_979564" data-name="Path 979564" d="M74.309,167.863H87.475a.917.917,0,0,0,0-1.834H74.309a.917.917,0,0,0,0,1.834Z" transform="translate(-65.278 -147.909)"/>
          <path id="Path_979565" data-name="Path 979565" d="M74.309,205.488H87.475a.917.917,0,0,0,0-1.834H74.309a.917.917,0,1,0,0,1.834Z" transform="translate(-65.278 -181.374)"/>
          <path id="Path_979566" data-name="Path 979566" d="M88.392,242.193a.917.917,0,0,0-.917-.917H74.309a.917.917,0,0,0,0,1.834H87.475A.917.917,0,0,0,88.392,242.193Z" transform="translate(-65.278 -214.836)"/>
          <path id="Path_979567" data-name="Path 979567" d="M74.309,384.2H87.475a.917.917,0,0,0,0-1.834H74.309a.917.917,0,0,0,0,1.834Z" transform="translate(-65.278 -340.326)"/>
          <path id="Path_979568" data-name="Path 979568" d="M51.712,71.491h-1.02q.035-.372.036-.749a7.785,7.785,0,0,0-1.25-4.234.829.829,0,0,0-1.393.9,6.144,6.144,0,0,1,.694,5.206,6.926,6.926,0,0,1-1.731,2.728l-.045.05a9.349,9.349,0,0,0-1.61,2.593H40.382a9.347,9.347,0,0,0-1.926-2.936A6.18,6.18,0,0,1,42.888,64.56q.121,0,.244,0a6.062,6.062,0,0,1,2.426.607.829.829,0,0,0,.723-1.493,7.713,7.713,0,0,0-3.086-.771,7.855,7.855,0,0,0-8.031,6.5H28.508a2.394,2.394,0,0,0-1.576.59,2.394,2.394,0,0,0-1.576-.59H5.031a1.566,1.566,0,0,0-1.564,1.564v.52H2.152A2.155,2.155,0,0,0,0,73.643V95.972a.829.829,0,1,0,1.658,0V95.18q.074.006.149.006H3.466c0,9.8-.014,9.164.032,9.388a1.567,1.567,0,0,0,1.533,1.25H25.357c.465,0,.6.346.746.487v2.508a3.556,3.556,0,0,0-1.9-.551H2.152a.5.5,0,0,1-.494-.494V99.841a.829.829,0,0,0-1.658,0v7.932a2.155,2.155,0,0,0,2.153,2.153H24.207a1.905,1.905,0,0,1,1.636.938,1.26,1.26,0,0,0,2.178,0,1.905,1.905,0,0,1,1.637-.939H51.712a2.155,2.155,0,0,0,2.153-2.153V73.643a2.155,2.155,0,0,0-2.153-2.153Zm-8.824,12.1a2.254,2.254,0,0,1-2.251-2.251V79.643h4.5v1.694A2.254,2.254,0,0,1,42.888,83.588ZM28.508,71.065h6.547A7.884,7.884,0,0,0,35.9,74.3H31.668a.917.917,0,1,0,0,1.834h5.537a7.533,7.533,0,0,1,1.576,2.325H31.668a.917.917,0,1,0,0,1.834h7.311v1.04a3.889,3.889,0,0,0,.218,1.285H31.668a.917.917,0,1,0,0,1.834l8.828-.031a3.906,3.906,0,0,0,6.3-3.089V78.96a8,8,0,0,1,1.942-3v28.21H28.5a2.542,2.542,0,0,0-.742.118V71.811a.747.747,0,0,1,.746-.747ZM1.658,73.643a.5.5,0,0,1,.494-.494H3.466V87.414H1.807q-.075,0-.149.006Zm.149,19.885a.149.149,0,0,1-.149-.149V89.221a.149.149,0,0,1,.149-.149h3.07v4.456H1.807Zm3.9,1.658H17.2a.845.845,0,0,0,.473-.149l0,0,3.631-2.557a1.441,1.441,0,0,0,0-2.356l-3.631-2.557,0,0a.829.829,0,0,0-.435-.146l-.037,0H5.125V71.065H25.357a.747.747,0,0,1,.746.746v32.473a2.557,2.557,0,0,0-.742-.118H5.125V95.186Zm10.665-1.658H6.535V89.072h9.836ZM20.1,91.3,18.03,92.759V89.841Zm32.1,16.473a.5.5,0,0,1-.494.494H29.658a3.557,3.557,0,0,0-1.9.551v-2.508c.151-.145.277-.487.746-.487H48.834A1.566,1.566,0,0,0,50.4,104.26V73.149h1.314a.5.5,0,0,1,.494.494v34.13Z" transform="translate(0 -56.182)"/>
        </g>
      </g>
    </g>
  </g>
</svg>
