<svg xmlns="http://www.w3.org/2000/svg" xmlns:xlink="http://www.w3.org/1999/xlink" width="108" height="108" viewBox="0 0 108 108">
  <defs>
    <filter id="Path_904820" x="0" y="0" width="108" height="108" filterUnits="userSpaceOnUse">
      <feOffset dy="3" input="SourceAlpha"/>
      <feGaussianBlur stdDeviation="3" result="blur"/>
      <feFlood flood-opacity="0.161"/>
      <feComposite operator="in" in2="blur"/>
      <feComposite in="SourceGraphic"/>
    </filter>
  </defs>
  <g id="Group_1144672" data-name="Group 1144672" transform="translate(-195.999 -2042)">
    <g id="Group_1144627" data-name="Group 1144627">
      <g transform="matrix(1, 0, 0, 1, 196, 2042)" filter="url(#Path_904820)">
        <g id="Path_904820-2" data-name="Path 904820" transform="translate(9 6)" fill="#ecf4fa">
          <path d="M 45 88.5 C 39.12687683105469 88.5 33.43022537231445 87.35007476806641 28.06830024719238 85.08217620849609 C 22.88852500915527 82.89131164550781 18.23629951477051 79.75458526611328 14.2408504486084 75.75914764404297 C 10.24541282653809 71.76370239257812 7.108687400817871 67.11147308349609 4.917825222015381 61.93170166015625 C 2.649924993515015 56.56977462768555 1.5 50.87312316894531 1.5 45 C 1.5 39.12687683105469 2.649924993515015 33.43022537231445 4.917825222015381 28.06830024719238 C 7.108687400817871 22.88852500915527 10.24541282653809 18.23629951477051 14.2408504486084 14.2408504486084 C 18.23629951477051 10.24541282653809 22.88852500915527 7.108687400817871 28.06830024719238 4.917825222015381 C 33.43022537231445 2.649924993515015 39.12687683105469 1.5 45 1.5 C 50.87312316894531 1.5 56.56977462768555 2.649924993515015 61.93170166015625 4.917825222015381 C 67.11147308349609 7.108687400817871 71.76370239257812 10.24541282653809 75.75914764404297 14.2408504486084 C 79.75458526611328 18.23629951477051 82.89131164550781 22.88852500915527 85.08217620849609 28.06830024719238 C 87.35007476806641 33.43022537231445 88.5 39.12687683105469 88.5 45 C 88.5 50.87312316894531 87.35007476806641 56.56977462768555 85.08217620849609 61.93170166015625 C 82.89131164550781 67.11147308349609 79.75458526611328 71.76370239257812 75.75914764404297 75.75914764404297 C 71.76370239257812 79.75458526611328 67.11147308349609 82.89131164550781 61.93170166015625 85.08217620849609 C 56.56977462768555 87.35007476806641 50.87312316894531 88.5 45 88.5 Z" stroke="none"/>
          <path d="M 45 3 C 39.32871246337891 3 33.82865524291992 4.110054016113281 28.65262985229492 6.299339294433594 C 23.65165710449219 8.414573669433594 19.15968322753906 11.44334411621094 15.301513671875 15.301513671875 C 11.44334411621094 19.15968322753906 8.414573669433594 23.65165710449219 6.299339294433594 28.65262985229492 C 4.110054016113281 33.82865524291992 3 39.32871246337891 3 45 C 3 50.67128753662109 4.110054016113281 56.17134475708008 6.299339294433594 61.34737396240234 C 8.414573669433594 66.34834289550781 11.44334411621094 70.84031677246094 15.301513671875 74.698486328125 C 19.15968322753906 78.55665588378906 23.65165710449219 81.58542633056641 28.65262985229492 83.70066070556641 C 33.82865524291992 85.88994598388672 39.32871246337891 87 45 87 C 50.67128753662109 87 56.17134475708008 85.88994598388672 61.34737396240234 83.70066070556641 C 66.34834289550781 81.58542633056641 70.84031677246094 78.55665588378906 74.698486328125 74.698486328125 C 78.55665588378906 70.84031677246094 81.58542633056641 66.34834289550781 83.70066070556641 61.34737396240234 C 85.88994598388672 56.17134475708008 87 50.67128753662109 87 45 C 87 39.32871246337891 85.88994598388672 33.82865524291992 83.70066070556641 28.65262985229492 C 81.58542633056641 23.65165710449219 78.55665588378906 19.15968322753906 74.698486328125 15.301513671875 C 70.84031677246094 11.44334411621094 66.34834289550781 8.414573669433594 61.34737396240234 6.299339294433594 C 56.17134475708008 4.110054016113281 50.67128753662109 3 45 3 M 45 0 C 69.85281372070312 0 90 20.14718627929688 90 45 C 90 69.85281372070312 69.85281372070312 90 45 90 C 20.14718627929688 90 0 69.85281372070312 0 45 C 0 20.14718627929688 20.14718627929688 0 45 0 Z" stroke="none" fill="#2a5673"/>
        </g>
      </g>
      <g id="searching" transform="translate(222.371 2064.273)">
        <g id="Group_1144626" data-name="Group 1144626" transform="translate(1 1.895)">
          <g id="Group_1144614" data-name="Group 1144614" transform="translate(0.891 0.891)">
            <path id="Path_979606" data-name="Path 979606" d="M2,4.7V43a1.813,1.813,0,0,0,1.807,1.807H6.586V9.126A1.813,1.813,0,0,1,8.393,7.319h26.74V4.7a1.813,1.813,0,0,0-1.807-1.807H3.807A1.813,1.813,0,0,0,2,4.7Z" transform="translate(-2 -2.895)" fill="#d6d6d6" fill-rule="evenodd"/>
          </g>
          <g id="Group_1144615" data-name="Group 1144615" transform="translate(5.478 5.316)">
            <path id="Path_979607" data-name="Path 979607" d="M7.145,9.666v38.3a1.81,1.81,0,0,0,1.807,1.8h29.52a1.81,1.81,0,0,0,1.807-1.8V9.666a1.813,1.813,0,0,0-1.807-1.807H8.952A1.813,1.813,0,0,0,7.145,9.666Z" transform="translate(-7.145 -7.859)" fill="#f7fdff" fill-rule="evenodd"/>
          </g>
          <g id="Group_1144616" data-name="Group 1144616" transform="translate(10.07 13.126)">
            <path id="Path_979608" data-name="Path 979608" d="M12.3,18.1v8.188a1.478,1.478,0,0,0,1.474,1.474h7.4a1.478,1.478,0,0,0,1.474-1.474V18.1a1.478,1.478,0,0,0-1.474-1.474h-7.4A1.478,1.478,0,0,0,12.3,18.1Z" transform="translate(-12.298 -16.622)" fill="#ffe366" fill-rule="evenodd"/>
          </g>
          <g id="Group_1144617" data-name="Group 1144617" transform="translate(19.651 0.891)">
            <path id="Path_979609" data-name="Path 979609" d="M35.614,2.895H23.047A29.692,29.692,0,0,1,25.19,7.319H37.421V4.7A1.813,1.813,0,0,0,35.614,2.895Z" transform="translate(-23.047 -2.895)" fill="#b3b3b3" fill-rule="evenodd"/>
          </g>
          <g id="Group_1144618" data-name="Group 1144618" transform="translate(16.106 5.316)">
            <path id="Path_979610" data-name="Path 979610" d="M36.989,7.859H24.758c4.7,12.042,4.133,33.1-5.688,41.914h20.7a1.81,1.81,0,0,0,1.807-1.8V46.516a10.917,10.917,0,1,1,0-21.7V9.666a1.813,1.813,0,0,0-1.807-1.807H36.989Z" transform="translate(-19.07 -7.859)" fill="#dbf4fc" fill-rule="evenodd"/>
          </g>
          <g id="Group_1144619" data-name="Group 1144619" transform="translate(45.07 42.649)">
            <path id="Path_979611" data-name="Path 979611" d="M53.251,51.013l-1.477,1.156a.539.539,0,0,0-.093.756l5.271,6.739a.539.539,0,0,0,.756.093l1.774-1.387,1.177-.921a.539.539,0,0,0,.093-.756l-1.27-1.624-4-5.115a.543.543,0,0,0-.759-.093Z" transform="translate(-51.567 -49.746)" fill="#ffe366" fill-rule="evenodd"/>
          </g>
          <g id="Group_1144620" data-name="Group 1144620" transform="translate(26.487 22.205)">
            <path id="Path_979612" data-name="Path 979612" d="M31.292,34.229A10.916,10.916,0,0,0,48.908,45.866c.066-.057.132-.117.2-.177a10.917,10.917,0,1,0-17.811-11.46Zm5.156,8.362a7.111,7.111,0,1,1,6.393,2.143,7.111,7.111,0,0,1-6.393-2.143Z" transform="translate(-30.718 -26.808)" fill="#69d5ff" fill-rule="evenodd"/>
          </g>
          <g id="Group_1144621" data-name="Group 1144621" transform="translate(30.294 26.011)">
            <path id="Path_979613" data-name="Path 979613" d="M37.237,33a7.108,7.108,0,1,0,6.069-1.822A7.111,7.111,0,0,0,37.237,33Z" transform="translate(-34.989 -31.078)" fill="#f7fdff" fill-rule="evenodd"/>
          </g>
          <g id="Group_1144622" data-name="Group 1144622" transform="translate(34.589 26.011)">
            <path id="Path_979614" data-name="Path 979614" d="M47.489,43.376A7.113,7.113,0,0,0,39.949,31.6a7.116,7.116,0,0,1,3.881,4.133,7.132,7.132,0,0,1,0,4.8,7.13,7.13,0,0,1-4.022,4.193,7.112,7.112,0,0,0,7.681-1.345Z" transform="translate(-39.808 -31.078)" fill="#dbf4fc" fill-rule="evenodd"/>
          </g>
          <g id="Group_1144623" data-name="Group 1144623" transform="translate(34.601 22.205)">
            <path id="Path_979615" data-name="Path 979615" d="M50.588,30.257a10.925,10.925,0,0,0-10.766-3.086,10.868,10.868,0,0,1,4.01,1.768,11,11,0,0,1,1.642,1.435,11.279,11.279,0,0,1,1.168,1.48,7.233,7.233,0,0,1,1.171,1.006,7.113,7.113,0,0,1-.321,10.052,6.8,6.8,0,0,1-.582.489,10.854,10.854,0,0,1-1.93,2.4,11.2,11.2,0,0,1-1.147.939A10.826,10.826,0,0,1,40.314,48.4a10.994,10.994,0,0,0,3.518.18,10.841,10.841,0,0,0,6.066-2.71c.066-.057.132-.117.2-.177a10.918,10.918,0,0,0,.5-15.431Z" transform="translate(-39.821 -26.808)" fill="#4ac1f0" fill-rule="evenodd"/>
          </g>
          <g id="Group_1144624" data-name="Group 1144624" transform="translate(46.754 42.649)">
            <path id="Path_979616" data-name="Path 979616" d="M59.688,55.068l-4-5.115a.543.543,0,0,0-.759-.093l-1.474,1.153a.54.54,0,0,1,.756.093l5.271,6.739a.542.542,0,0,1-.093.756l.3-.231,1.177-.921a.539.539,0,0,0,.093-.756Z" transform="translate(-53.457 -49.746)" fill="#fac852" fill-rule="evenodd"/>
          </g>
          <g id="Group_1144625" data-name="Group 1144625">
            <path id="Path_979617" data-name="Path 979617" d="M13.663,28.54h7.405a2.368,2.368,0,0,0,2.365-2.365V17.986a2.368,2.368,0,0,0-2.365-2.365H13.663A2.368,2.368,0,0,0,11.3,17.986v8.188a2.368,2.368,0,0,0,2.365,2.365ZM13.08,17.986a.59.59,0,0,1,.582-.582h7.405a.59.59,0,0,1,.582.582v8.188a.59.59,0,0,1-.582.583H13.663a.59.59,0,0,1-.582-.583Z" transform="translate(-2.119 -3.387)"/>
            <path id="Path_979618" data-name="Path 979618" d="M28.236,17.862h9.923a.891.891,0,1,0,0-1.783H28.236a.891.891,0,1,0,0,1.783Z" transform="translate(-3.864 -3.437)"/>
            <path id="Path_979619" data-name="Path 979619" d="M28.236,23.88h9.923a.891.891,0,1,0,0-1.783H28.236a.891.891,0,1,0,0,1.783Z" transform="translate(-3.864 -4.091)"/>
            <path id="Path_979620" data-name="Path 979620" d="M47.527,37.409a4.75,4.75,0,0,0-5.646-3.622.891.891,0,1,0,.379,1.742,2.963,2.963,0,0,1,3.526,2.261.891.891,0,1,0,1.741-.38Z" transform="translate(-5.368 -5.35)"/>
            <path id="Path_979621" data-name="Path 979621" d="M47.828,32.606a8,8,0,1,0-.361,11.312,8.011,8.011,0,0,0,.361-11.312ZM46.248,42.618a6.22,6.22,0,1,1-8.51-9.073h0a6.219,6.219,0,0,1,8.509,9.073Z" transform="translate(-4.587 -4.959)"/>
            <path id="Path_979622" data-name="Path 979622" d="M55.957,50.94,50.689,44.2a1.434,1.434,0,0,0-2.011-.247l-.772.6-1.04-1.328A11.782,11.782,0,0,0,40.5,23.406h0l0-14.385a2.7,2.7,0,0,0-2.7-2.7H35.916V4.593a2.7,2.7,0,0,0-2.7-2.7H3.7A2.7,2.7,0,0,0,1,4.593v38.3a2.7,2.7,0,0,0,2.7,2.7H5.59v1.728a2.689,2.689,0,0,0,2.692,2.692H37.8a2.7,2.7,0,0,0,2.7-2.692v-.677a11.645,11.645,0,0,0,5.033-2.221l.968,1.237-.775.606a1.432,1.432,0,0,0-.246,2.008l5.271,6.739a1.433,1.433,0,0,0,2.007.245l2.95-2.308a1.432,1.432,0,0,0,.247-2.008ZM3.7,43.808a.917.917,0,0,1-.916-.916V4.593A.917.917,0,0,1,3.7,3.677h29.52a.917.917,0,0,1,.916.916V6.32H8.282a2.7,2.7,0,0,0-2.692,2.7V43.808Zm35.021,3.511a.909.909,0,0,1-.918.909H8.282a.907.907,0,0,1-.909-.909V9.021A.915.915,0,0,1,8.282,8.1H37.8a.917.917,0,0,1,.918.918l0,14.207h0a11.734,11.734,0,0,0-6.954,2.037H25.372a.891.891,0,1,0,0,1.783H29.7a11.713,11.713,0,0,0-2.244,3.581H11.069a.891.891,0,1,0,0,1.783H26.893a11.919,11.919,0,0,0-.242,3.581H11.069a.891.891,0,1,0,0,1.783H26.936a11.723,11.723,0,0,0,1.513,3.581H11.069a.891.891,0,0,0,0,1.783H29.834a11.754,11.754,0,0,0,8.19,3.682c.232,0,.463.021.7,0Zm6.542-4.991a9.853,9.853,0,0,1-4.759,2.5,9.634,9.634,0,0,1-2.415.214A10.025,10.025,0,0,1,38.4,24.992h.33a9.026,9.026,0,0,1,1.774.223,9.9,9.9,0,0,1,5.214,2.941,10.043,10.043,0,0,1-.455,14.171Zm6.678,11.306L47.1,47.451l2.4-1.875,4.835,6.184Z" transform="translate(-1 -1.895)"/>
          </g>
        </g>
      </g>
    </g>
  </g>
</svg>
