<svg xmlns="http://www.w3.org/2000/svg" xmlns:xlink="http://www.w3.org/1999/xlink" width="108" height="108" viewBox="0 0 108 108">
  <defs>
    <filter id="Fondo" x="0" y="0" width="108" height="108" filterUnits="userSpaceOnUse">
      <feOffset dy="3" input="SourceAlpha"/>
      <feGaussianBlur stdDeviation="3" result="blur"/>
      <feFlood flood-opacity="0.161"/>
      <feComposite operator="in" in2="blur"/>
      <feComposite in="SourceGraphic"/>
    </filter>
  </defs>
  <g id="Group_1144669" data-name="Group 1144669" transform="translate(-1165.999 -1077)">
    <g id="Group_1144613" data-name="Group 1144613">
      <g transform="matrix(1, 0, 0, 1, 1166, 1077)" filter="url(#Fondo)">
        <g id="Fondo-2" data-name="Fondo" transform="translate(9 6)" fill="#ffeacb" stroke="#ff9902" stroke-width="3">
          <circle cx="45" cy="45" r="45" stroke="none"/>
          <circle cx="45" cy="45" r="43.5" fill="none"/>
        </g>
      </g>
      <g id="Group_1144612" data-name="Group 1144612" transform="translate(1135.598 1098.587)">
        <g id="Group_1144610" data-name="Group 1144610" transform="translate(62.987 4.431)">
          <path id="Path_979581" data-name="Path 979581" d="M166.635,147.083H132.554a.8.8,0,0,1-.8-.8V101.491a.8.8,0,0,1,.8-.8h34.081a.8.8,0,0,1,.8.8v44.788A.8.8,0,0,1,166.635,147.083Z" transform="translate(-124.612 -93.549)" fill="#9dcffd"/>
          <path id="Path_979582" data-name="Path 979582" d="M135.574,116.021H101.493a.8.8,0,0,1-.8-.8V70.429a.8.8,0,0,1,.8-.8h34.081a.8.8,0,0,1,.8.8v44.788A.8.8,0,0,1,135.574,116.021Z" transform="translate(-97.12 -66.056)" fill="#bedaff"/>
          <path id="Path_979583" data-name="Path 979583" d="M99.961,84.958H70.429a.8.8,0,0,1-.8-.8V39.366a.8.8,0,0,1,.8-.8h32.153a.8.8,0,0,1,.8.8V79.6Z" transform="translate(-69.625 -38.562)" fill="#f0fcff"/>
          <path id="Path_979584" data-name="Path 979584" d="M345.754,38.562h-3.569a.8.8,0,0,1,.8.8V79.6l-.689,2.067,4.258-2.067V39.366A.8.8,0,0,0,345.754,38.562Z" transform="translate(-310.869 -38.562)" fill="#d7ecfe"/>
          <path id="Path_979585" data-name="Path 979585" d="M166.713,145.283h16.182l2.021-2.954-2.021-4.184-5.992-1.186-11.7,1.186Z" transform="translate(-154.221 -125.654)" fill="#bedaff"/>
          <path id="Path_979586" data-name="Path 979586" d="M252.336,136.959l-1.908.193,7.9.992v7.138h3.447v-7.138Z" transform="translate(-229.654 -125.654)" fill="#9dcffd"/>
          <path id="Path_979587" data-name="Path 979587" d="M100.687,318.123h3.569v3.569h-3.569Z" transform="translate(-97.118 -286.002)" fill="#7a6c79"/>
          <path id="Path_979588" data-name="Path 979588" d="M339.007,395.778h-4.549a.8.8,0,0,0-.8.8v4.549Z" transform="translate(-303.318 -354.735)" fill="#9dcffd"/>
          <path id="Path_979589" data-name="Path 979589" d="M100.687,380.247h3.569v3.569h-3.569Z" transform="translate(-97.118 -340.989)" fill="#7a6c79"/>
          <path id="Path_979590" data-name="Path 979590" d="M182.9,119.787H165.2l1.51-3.569H182.9l1.884,1.95Z" transform="translate(-154.221 -107.296)" fill="#6bbcf9"/>
          <path id="Path_979591" data-name="Path 979591" d="M319.185,116.218h3.447v3.569h-3.447Z" transform="translate(-290.511 -107.296)" fill="#38acf6"/>
          <path id="Path_979592" data-name="Path 979592" d="M100.689,116.218h8.922v10.707h-8.922Z" transform="translate(-97.12 -107.296)" fill="#ff7e8e"/>
        </g>
        <g id="Group_1144611" data-name="Group 1144611" transform="translate(62.125 0)">
          <path id="Path_979593" data-name="Path 979593" d="M105.814,26.613a.862.862,0,0,0,.862-.862V12.373a1.668,1.668,0,0,0-1.666-1.666h-1.9V8.8a1.668,1.668,0,0,0-1.666-1.666h-1.9v-1.9a1.668,1.668,0,0,0-1.666-1.666H70.987V2.646a2.646,2.646,0,0,0-5.293,0v.923h-1.9a1.668,1.668,0,0,0-1.666,1.666v5.776a.862.862,0,1,0,1.723,0V5.292h1.845V8.339a2.649,2.649,0,0,0,2.646,2.646c2.61,0,3.452-3.508,1.785-3.508a.862.862,0,0,0-.862.862.923.923,0,0,1-1.846,0V5.292h30.4V44.612H94.127a1.668,1.668,0,0,0-1.666,1.666v3.687H63.848v-35.2a.862.862,0,1,0-1.723,0V50.023a1.668,1.668,0,0,0,1.666,1.666h1.9v1.9a1.668,1.668,0,0,0,1.666,1.666h1.9v1.9a1.668,1.668,0,0,0,1.666,1.666H105.01a1.668,1.668,0,0,0,1.666-1.666V29.507a.862.862,0,1,0-1.723,0V57.1H70.986V55.258H94.424a.862.862,0,0,0,0-1.723H67.417V51.689H93.344a.851.851,0,0,0,.541-.209l.016-.014c.512-.463-1.783,1.783,5.384-5.382l.014-.014a.882.882,0,0,0,.237-.552.013.013,0,0,1,0,0c0-.006,0-.013,0-.019s0-.014,0-.021V8.861h1.845V53.534h-3.2a.862.862,0,0,0,0,1.723h3.262a1.668,1.668,0,0,0,1.666-1.666V12.43h1.845V25.751a.862.862,0,0,0,.862.862ZM67.417,2.646a.923.923,0,1,1,1.846,0v.923H67.417ZM96.6,46.335l-2.411,2.411V46.335Z" transform="translate(-62.125 0)"/>
          <path id="Path_979594" data-name="Path 979594" d="M180.433,72.618a.862.862,0,0,0,0-1.723h-11.3a.862.862,0,0,0,0,1.723Z" transform="translate(-156.078 -62.749)"/>
          <path id="Path_979595" data-name="Path 979595" d="M93.188,109.58v10.707a.862.862,0,0,0,.862.862H122.6a.862.862,0,0,0,.862-.862V109.58a.862.862,0,0,0-.862-.862H94.05A.862.862,0,0,0,93.188,109.58ZM115.2,114.01v5.415h-4.82V114.01Zm-6.543,5.415h-4.82V114.01h4.82Zm8.266,0V114.01h4.82v5.415Zm4.82-7.138H103.834v-1.845h17.906Zm-26.828-1.845h7.2v8.983h-7.2Z" transform="translate(-89.619 -96.227)"/>
          <path id="Path_979596" data-name="Path 979596" d="M94.049,234.69h3.569a.862.862,0,1,0,0-1.723H94.049a.862.862,0,1,0,0,1.723Z" transform="translate(-89.618 -206.2)"/>
          <path id="Path_979597" data-name="Path 979597" d="M94.049,265.752h3.569a.862.862,0,0,0,0-1.723H94.049a.862.862,0,1,0,0,1.723Z" transform="translate(-89.618 -233.693)"/>
          <path id="Path_979598" data-name="Path 979598" d="M176.554,232.967H156.175a.862.862,0,1,0,0,1.723h20.379a.862.862,0,0,0,0-1.723Z" transform="translate(-144.606 -206.2)"/>
          <path id="Path_979599" data-name="Path 979599" d="M177.416,264.891a.862.862,0,0,0-.862-.862H156.175a.862.862,0,1,0,0,1.723h20.379A.862.862,0,0,0,177.416,264.891Z" transform="translate(-144.606 -233.693)"/>
          <path id="Path_979600" data-name="Path 979600" d="M93.187,315.054a.862.862,0,0,0,.862.862h3.569a.862.862,0,0,0,.862-.862v-3.569a.862.862,0,0,0-.862-.862H94.049a.862.862,0,0,0-.862.862Zm1.723-2.707h1.845v1.845H94.91Z" transform="translate(-89.618 -274.933)"/>
          <path id="Path_979601" data-name="Path 979601" d="M170.45,310.623H156.174a.862.862,0,1,0,0,1.723H170.45a.862.862,0,1,0,0-1.723Z" transform="translate(-144.605 -274.933)"/>
          <path id="Path_979602" data-name="Path 979602" d="M156.174,343.408h10.707a.862.862,0,0,0,0-1.724H156.174a.862.862,0,0,0,0,1.724Z" transform="translate(-144.605 -302.427)"/>
          <path id="Path_979603" data-name="Path 979603" d="M171.311,373.609a.862.862,0,0,0-.862-.862H156.174a.862.862,0,1,0,0,1.723H170.45A.862.862,0,0,0,171.311,373.609Z" transform="translate(-144.605 -329.92)"/>
          <path id="Path_979604" data-name="Path 979604" d="M93.187,377.179a.862.862,0,0,0,.862.862h3.569a.862.862,0,0,0,.862-.862V373.61a.862.862,0,0,0-.862-.862H94.049a.862.862,0,0,0-.862.862Zm1.723-2.707h1.845v1.846H94.91Z" transform="translate(-89.618 -329.921)"/>
          <path id="Path_979605" data-name="Path 979605" d="M156.174,403.81a.862.862,0,1,0,0,1.723h10.707a.862.862,0,0,0,0-1.723Z" transform="translate(-144.605 -357.414)"/>
        </g>
      </g>
    </g>
  </g>
</svg>
