<svg xmlns="http://www.w3.org/2000/svg" xmlns:xlink="http://www.w3.org/1999/xlink" width="108" height="108" viewBox="0 0 108 108">
  <defs>
    <filter id="Path_904820" x="0" y="0" width="108" height="108" filterUnits="userSpaceOnUse">
      <feOffset dy="3" input="SourceAlpha"/>
      <feGaussianBlur stdDeviation="3" result="blur"/>
      <feFlood flood-opacity="0.161"/>
      <feComposite operator="in" in2="blur"/>
      <feComposite in="SourceGraphic"/>
    </filter>
  </defs>
  <g id="Group_1144657" data-name="Group 1144657" transform="translate(-201 -1836)">
    <g id="Group_1144562" data-name="Group 1144562">
      <g transform="matrix(1, 0, 0, 1, 201, 1836)" filter="url(#Path_904820)">
        <g id="Path_904820-2" data-name="Path 904820" transform="translate(9 6)" fill="#ecf4fa">
          <path d="M 45 88.5 C 39.12687683105469 88.5 33.43022537231445 87.35007476806641 28.06830024719238 85.08217620849609 C 22.88852500915527 82.89131164550781 18.23629951477051 79.75458526611328 14.2408504486084 75.75914764404297 C 10.24541282653809 71.76370239257812 7.108687400817871 67.11147308349609 4.917825222015381 61.93170166015625 C 2.649924993515015 56.56977462768555 1.5 50.87312316894531 1.5 45 C 1.5 39.12687683105469 2.649924993515015 33.43022537231445 4.917825222015381 28.06830024719238 C 7.108687400817871 22.88852500915527 10.24541282653809 18.23629951477051 14.2408504486084 14.2408504486084 C 18.23629951477051 10.24541282653809 22.88852500915527 7.108687400817871 28.06830024719238 4.917825222015381 C 33.43022537231445 2.649924993515015 39.12687683105469 1.5 45 1.5 C 50.87312316894531 1.5 56.56977462768555 2.649924993515015 61.93170166015625 4.917825222015381 C 67.11147308349609 7.108687400817871 71.76370239257812 10.24541282653809 75.75914764404297 14.2408504486084 C 79.75458526611328 18.23629951477051 82.89131164550781 22.88852500915527 85.08217620849609 28.06830024719238 C 87.35007476806641 33.43022537231445 88.5 39.12687683105469 88.5 45 C 88.5 50.87312316894531 87.35007476806641 56.56977462768555 85.08217620849609 61.93170166015625 C 82.89131164550781 67.11147308349609 79.75458526611328 71.76370239257812 75.75914764404297 75.75914764404297 C 71.76370239257812 79.75458526611328 67.11147308349609 82.89131164550781 61.93170166015625 85.08217620849609 C 56.56977462768555 87.35007476806641 50.87312316894531 88.5 45 88.5 Z" stroke="none"/>
          <path d="M 45 3 C 39.32871246337891 3 33.82865524291992 4.110054016113281 28.65262985229492 6.299339294433594 C 23.65165710449219 8.414573669433594 19.15968322753906 11.44334411621094 15.301513671875 15.301513671875 C 11.44334411621094 19.15968322753906 8.414573669433594 23.65165710449219 6.299339294433594 28.65262985229492 C 4.110054016113281 33.82865524291992 3 39.32871246337891 3 45 C 3 50.67128753662109 4.110054016113281 56.17134475708008 6.299339294433594 61.34737396240234 C 8.414573669433594 66.34834289550781 11.44334411621094 70.84031677246094 15.301513671875 74.698486328125 C 19.15968322753906 78.55665588378906 23.65165710449219 81.58542633056641 28.65262985229492 83.70066070556641 C 33.82865524291992 85.88994598388672 39.32871246337891 87 45 87 C 50.67128753662109 87 56.17134475708008 85.88994598388672 61.34737396240234 83.70066070556641 C 66.34834289550781 81.58542633056641 70.84031677246094 78.55665588378906 74.698486328125 74.698486328125 C 78.55665588378906 70.84031677246094 81.58542633056641 66.34834289550781 83.70066070556641 61.34737396240234 C 85.88994598388672 56.17134475708008 87 50.67128753662109 87 45 C 87 39.32871246337891 85.88994598388672 33.82865524291992 83.70066070556641 28.65262985229492 C 81.58542633056641 23.65165710449219 78.55665588378906 19.15968322753906 74.698486328125 15.301513671875 C 70.84031677246094 11.44334411621094 66.34834289550781 8.414573669433594 61.34737396240234 6.299339294433594 C 56.17134475708008 4.110054016113281 50.67128753662109 3 45 3 M 45 0 C 69.85281372070312 0 90 20.14718627929688 90 45 C 90 69.85281372070312 69.85281372070312 90 45 90 C 20.14718627929688 90 0 69.85281372070312 0 45 C 0 20.14718627929688 20.14718627929688 0 45 0 Z" stroke="none" fill="#2a5673"/>
        </g>
      </g>
      <g id="Group_1144561" data-name="Group 1144561" transform="translate(225.998 1858.994)">
        <g id="Group_1144559" data-name="Group 1144559" transform="translate(0.952 0.957)">
          <path id="Path_979391" data-name="Path 979391" d="M29.23,313.034l-15.2,15.2a3.807,3.807,0,0,1-5.377,0,3.731,3.731,0,0,1-.769-1.131,3.784,3.784,0,0,1,.769-4.246l15.2-15.2,3.477,3.477Z" transform="translate(-7.543 -274.246)" fill="#4e342e"/>
          <path id="Path_979392" data-name="Path 979392" d="M27.331,311.134l-15.2,15.2a3.8,3.8,0,0,1-2.688,1.112,3.717,3.717,0,0,1-1.558-.342,3.784,3.784,0,0,1,.769-4.246l4.75-4.75,3.363-3.363,7.087-7.087Z" transform="translate(-7.544 -274.246)" fill="#795548"/>
          <path id="Path_979393" data-name="Path 979393" d="M138.467,30.34a22.806,22.806,0,0,1-22.8,22.8c-.484,0-.96-.019-1.425-.048a22.8,22.8,0,0,1,0-45.5c.465-.028.94-.048,1.425-.048A22.806,22.806,0,0,1,138.467,30.34Z" transform="translate(-83.368 -7.54)" fill="#283593"/>
          <ellipse id="Ellipse_11556" data-name="Ellipse 11556" cx="21.375" cy="22.752" rx="21.375" ry="22.752" transform="translate(9.499 0.048)" fill="#3f51b5"/>
          <path id="Path_979394" data-name="Path 979394" d="M165,60.673a19.019,19.019,0,0,1-19,19q-.727,0-1.425-.057a19,19,0,0,1,0-37.886q.7-.057,1.425-.057A19.019,19.019,0,0,1,165,60.673Z" transform="translate(-113.697 -37.873)" fill="#00838f"/>
          <ellipse id="Ellipse_11557" data-name="Ellipse 11557" cx="17.575" cy="18.943" rx="17.575" ry="18.943" transform="translate(13.299 3.857)" fill="#00bcd4"/>
          <g id="Group_1144558" data-name="Group 1144558" transform="translate(24.699 9.503)">
            <path id="Path_979395" data-name="Path 979395" d="M237,111.894a1.9,1.9,0,0,1-1.9-1.9v-2.924a2.859,2.859,0,0,1,2.447-2.814,3.81,3.81,0,0,0,3.164-4.6,3.755,3.755,0,0,0-2.873-2.873,3.807,3.807,0,0,0-4.638,3.712,1.9,1.9,0,1,1-3.8,0,7.6,7.6,0,1,1,9.5,7.361v2.14A1.9,1.9,0,0,1,237,111.894Z" transform="translate(-229.398 -92.896)" fill="#fff"/>
            <circle id="Ellipse_11558" data-name="Ellipse 11558" cx="1.9" cy="1.9" r="1.9" transform="translate(5.7 22.797)" fill="#fff"/>
          </g>
          <rect id="Rectangle_405410" data-name="Rectangle 405410" width="4.759" height="2.687" transform="translate(14.606 45.871) rotate(135)" fill="#cfd8dc"/>
          <rect id="Rectangle_405411" data-name="Rectangle 405411" width="4.759" height="4.917" transform="translate(12.703 43.973) rotate(135)" fill="#fff"/>
        </g>
        <g id="Group_1144560" data-name="Group 1144560" transform="translate(0.001 0.007)">
          <path id="Path_979396" data-name="Path 979396" d="M232.223,85.477a8.556,8.556,0,0,0-10.357,8.363,2.85,2.85,0,1,0,5.7,0,2.856,2.856,0,0,1,3.5-2.782A2.791,2.791,0,0,1,233.2,93.2a2.892,2.892,0,0,1-.445,2.278,2.857,2.857,0,0,1-1.922,1.188,3.814,3.814,0,0,0-3.264,3.755v2.925a2.85,2.85,0,1,0,5.7,0V101.9a8.553,8.553,0,0,0-1.042-16.425Zm3.64,12.176a6.67,6.67,0,0,1-3.786,2.628.949.949,0,0,0-.712.919v2.14a.95.95,0,1,1-1.9,0v-2.925a1.9,1.9,0,0,1,1.633-1.873,4.754,4.754,0,0,0,.35-9.345,5.062,5.062,0,0,0-1.046-.11,4.679,4.679,0,0,0-2.981,1.063,4.738,4.738,0,0,0-1.756,3.69.95.95,0,1,1-1.9,0,6.651,6.651,0,1,1,12.1,3.813Z" transform="translate(-197.166 -75.791)"/>
          <path id="Path_979397" data-name="Path 979397" d="M275.916,290.14a2.85,2.85,0,1,0,2.85,2.85A2.85,2.85,0,0,0,275.916,290.14Zm0,3.8a.95.95,0,1,1,.95-.95A.95.95,0,0,1,275.916,293.94Z" transform="translate(-242.666 -257.84)"/>
          <path id="Path_979398" data-name="Path 979398" d="M33.25.007A23.734,23.734,0,0,0,13.444,36.843L9.5,40.783h0L6.141,44.146h0L1.39,48.9a4.752,4.752,0,0,0,6.721,6.721l4.749-4.75h0L16.223,47.5h0l3.94-3.94A23.745,23.745,0,1,0,33.25.007ZM12.189,48.852,8.155,44.818l2.02-2.02,4.034,4.034ZM6.767,54.274a2.927,2.927,0,0,1-4.034,0,2.857,2.857,0,0,1,0-4.034l4.078-4.078L10.846,50.2Zm8.784-8.785-4.033-4.033L14.573,38.4a23.949,23.949,0,0,0,4.033,4.033Zm17.7.118A21.85,21.85,0,1,1,55.1,23.757,21.85,21.85,0,0,1,33.25,45.607Z" transform="translate(-0.001 -0.007)"/>
          <path id="Path_979399" data-name="Path 979399" d="M139.416,34.14a19.95,19.95,0,1,0,19.95,19.95A19.95,19.95,0,0,0,139.416,34.14Zm0,38a18.05,18.05,0,1,1,18.05-18.05A18.05,18.05,0,0,1,139.416,72.14Z" transform="translate(-106.166 -30.34)"/>
        </g>
      </g>
    </g>
  </g>
</svg>
