<svg xmlns="http://www.w3.org/2000/svg" xmlns:xlink="http://www.w3.org/1999/xlink" width="108" height="108" viewBox="0 0 108 108">
  <defs>
    <filter id="Fondo" x="0" y="0" width="108" height="108" filterUnits="userSpaceOnUse">
      <feOffset dy="3" input="SourceAlpha"/>
      <feGaussianBlur stdDeviation="3" result="blur"/>
      <feFlood flood-opacity="0.161"/>
      <feComposite operator="in" in2="blur"/>
      <feComposite in="SourceGraphic"/>
    </filter>
  </defs>
  <g id="Group_1144661" data-name="Group 1144661" transform="translate(-1218 -4114)">
    <g id="Group_1144601" data-name="Group 1144601">
      <g transform="matrix(1, 0, 0, 1, 1218, 4114)" filter="url(#Fondo)">
        <g id="Fondo-2" data-name="Fondo" transform="translate(9 6)" fill="#fff4e4" stroke="#ff9902" stroke-width="3">
          <circle cx="45" cy="45" r="45" stroke="none"/>
          <circle cx="45" cy="45" r="43.5" fill="none"/>
        </g>
      </g>
      <g id="Group_1144600" data-name="Group 1144600" transform="translate(1226.277 4136.253)">
        <g id="Group_1144599" data-name="Group 1144599" transform="translate(22.479 1.838)">
          <g id="Group_1144597" data-name="Group 1144597" transform="translate(0 0)">
            <path id="Path_979529" data-name="Path 979529" d="M113.546,106.193H82.529A2.2,2.2,0,0,1,80.336,104V71.972a2.119,2.119,0,0,1,.642-1.551L91.064,60.335a2.118,2.118,0,0,1,1.551-.642h20.931a2.2,2.2,0,0,1,2.193,2.193V104a2.2,2.2,0,0,1-2.193,2.193Z" transform="translate(-75.018 -54.375)" fill="#e2e3e3" fill-rule="evenodd"/>
            <path id="Path_979530" data-name="Path 979530" d="M62.85,55.5H31.832A2.2,2.2,0,0,1,29.639,53.3V21.276a2.118,2.118,0,0,1,.642-1.551L40.367,9.639A2.119,2.119,0,0,1,41.918,9H62.849a2.2,2.2,0,0,1,2.193,2.193V53.3A2.2,2.2,0,0,1,62.85,55.5Z" transform="translate(-29.639 -8.997)" fill="#eff4f7" fill-rule="evenodd"/>
            <path id="Path_979531" data-name="Path 979531" d="M41.989,11.261,31.9,21.347a2.2,2.2,0,0,0-.452.642h9.2a1.984,1.984,0,0,0,1.98-1.98v-9.2a2.2,2.2,0,0,0-.642.452Z" transform="translate(-31.261 -10.619)" fill="#e2e3e3" fill-rule="evenodd"/>
            <path id="Path_979532" data-name="Path 979532" d="M192.354,69.179V65.465a1.051,1.051,0,0,1,1.049-1.049h11.024a1.051,1.051,0,0,1,1.049,1.049v3.714a1.051,1.051,0,0,1-1.049,1.049H193.4A1.051,1.051,0,0,1,192.354,69.179Z" transform="translate(-175.287 -58.603)" fill="#eb3b48" fill-rule="evenodd"/>
          </g>
          <g id="Group_1144598" data-name="Group 1144598" transform="translate(10.196 14.376)">
            <path id="Path_979533" data-name="Path 979533" d="M339.56,357.774l-3.352-3.352,1.624-2.3,3.407,3.407Z" transform="translate(-314.248 -330.505)" fill="#455a64" fill-rule="evenodd"/>
            <path id="Path_979534" data-name="Path 979534" d="M361.074,377.115l-3.1,3.1a.434.434,0,0,0,0,.612l8.452,8.452a2.628,2.628,0,0,0,3.716-3.716l-8.452-8.452A.434.434,0,0,0,361.074,377.115Z" transform="translate(-333.614 -352.765)" fill="#707d8c" fill-rule="evenodd"/>
            <path id="Path_979535" data-name="Path 979535" d="M361.072,377.113l-3.1,3.1a.434.434,0,0,0,0,.612l2.108,2.108,3.716-3.716-2.108-2.108A.434.434,0,0,0,361.072,377.113Z" transform="translate(-333.612 -352.764)" fill="#96abbc" fill-rule="evenodd"/>
            <ellipse id="Ellipse_11569" data-name="Ellipse 11569" cx="12.443" cy="12.443" rx="12.443" ry="12.443" transform="matrix(0.198, -0.98, 0.98, 0.198, 0, 24.389)" fill="#4294ff"/>
            <circle id="Ellipse_11570" data-name="Ellipse 11570" cx="9.271" cy="9.271" r="9.271" transform="translate(4.205 6.758) rotate(-7.992)" fill="#eff4f7"/>
          </g>
          <path id="Path_979536" data-name="Path 979536" d="M217.6,244.5a1.346,1.346,0,0,1,1.9,1.9l-6.481,6.481a1.347,1.347,0,0,1-2.057-.183l-2.793-3.515a1.344,1.344,0,0,1,2.1-1.672l1.908,2.4Z" transform="translate(-189.182 -219.446)" fill="#4294ff" fill-rule="evenodd"/>
        </g>
        <path id="Path_979537" data-name="Path 979537" d="M52.2,28.2l-6.481,6.482a.494.494,0,0,1-.4.146.5.5,0,0,1-.371-.216.207.207,0,0,0-.035-.042l-2.79-3.516a.5.5,0,0,1,.079-.708.5.5,0,0,1,.707.081l1.91,2.4a.84.84,0,0,0,1.252.071l5.417-5.416a.505.505,0,0,1,.712.716Zm1.187-1.9a2.182,2.182,0,0,0-3.087,0L45.55,31.05l-1.321-1.666A2.183,2.183,0,1,0,40.81,32.1l2.78,3.5a2.181,2.181,0,0,0,1.583.9c.064.006.129.008.193.008a2.174,2.174,0,0,0,1.543-.64l6.481-6.48a2.182,2.182,0,0,0,0-3.091ZM47.37,39.332A8.432,8.432,0,1,0,38.935,30.9,8.439,8.439,0,0,0,47.37,39.332Zm0-18.543A10.111,10.111,0,1,0,57.482,30.9,10.124,10.124,0,0,0,47.37,20.789ZM68.6,52.136a1.8,1.8,0,0,1-2.533,0l-5.763-5.761,2.538-2.535L68.6,49.6a1.794,1.794,0,0,1,0,2.535Zm-6.243-.674V50.8L58.59,47.03a3.036,3.036,0,0,1-2.9,2.146H28.635v2.286a1.356,1.356,0,0,0,1.356,1.354H61.01A1.352,1.352,0,0,0,62.36,51.461ZM23.317,46.145A1.356,1.356,0,0,0,24.673,47.5H55.691a1.352,1.352,0,0,0,1.351-1.353v-.661l-.91-.914a.841.841,0,0,1,0-1.186l.213-.216L54.984,41.8a13.3,13.3,0,1,1,2.058-20.024V4.031a1.352,1.352,0,0,0-1.351-1.354H34.76c-.025,0-.05,0-.069,0v8.548a2.824,2.824,0,0,1-2.82,2.819H23.322c0,.023,0,.046,0,.069Zm9.7-42.281v7.365a1.144,1.144,0,0,1-1.143,1.141H24.5Zm28,4.131A1.352,1.352,0,0,1,62.36,9.348V40.984l-1.321-1.323a.841.841,0,0,0-1.187,0l-.213.216-1.365-1.364a13.279,13.279,0,0,0,.45-14.539V7.994ZM57.22,39.832l1.232,1.231-.92.918L56.3,40.75Q56.782,40.314,57.22,39.832ZM59,30.9A11.626,11.626,0,1,0,47.37,42.524,11.641,11.641,0,0,0,59,30.9ZM57.913,43.976l1.207,1.211,2.538-2.535-1.212-1.211Zm11.878,4.438-5.749-5.752V9.348A3.036,3.036,0,0,0,61.01,6.316H58.724V4.031A3.036,3.036,0,0,0,55.691,1H34.76a2.984,2.984,0,0,0-2.147.889L22.531,11.973a2.965,2.965,0,0,0-.891,2.144V46.145a3.036,3.036,0,0,0,3.033,3.031h2.286v2.286a3.036,3.036,0,0,0,3.033,3.033H61.01a3.041,3.041,0,0,0,2.9-2.146l.975.974a3.47,3.47,0,0,0,4.908-4.908ZM26.854,25.088a.84.84,0,0,1,.841-.84h5.5a.839.839,0,1,1,0,1.679H27.7A.84.84,0,0,1,26.854,25.088Zm0,5.812a.841.841,0,0,1,.841-.84h4.062a.839.839,0,1,1,0,1.679H27.7A.839.839,0,0,1,26.854,30.9ZM38.46,42.524a.84.84,0,0,1-.841.84H27.7a.839.839,0,1,1,0-1.679H37.62A.84.84,0,0,1,38.46,42.524ZM26.854,19.275a.84.84,0,0,1,.841-.839H37.62a.839.839,0,1,1,0,1.678H27.7a.84.84,0,0,1-.841-.839Zm0,17.437a.84.84,0,0,1,.841-.839h5.5a.839.839,0,1,1,0,1.678H27.7A.84.84,0,0,1,26.854,36.712ZM40.385,8.49H51.828v4.135H40.385ZM39.549,14.3a.84.84,0,0,1-.841-.839V7.65a.839.839,0,0,1,.841-.839h13.12a.84.84,0,0,1,.841.839v5.813a.84.84,0,0,1-.841.839Z" fill-rule="evenodd"/>
      </g>
    </g>
  </g>
</svg>
