<svg xmlns="http://www.w3.org/2000/svg" xmlns:xlink="http://www.w3.org/1999/xlink" width="108" height="108" viewBox="0 0 108 108">
  <defs>
    <filter id="Fondo" x="0" y="0" width="108" height="108" filterUnits="userSpaceOnUse">
      <feOffset dy="3" input="SourceAlpha"/>
      <feGaussianBlur stdDeviation="3" result="blur"/>
      <feFlood flood-opacity="0.161"/>
      <feComposite operator="in" in2="blur"/>
      <feComposite in="SourceGraphic"/>
    </filter>
  </defs>
  <g id="Group_1144650" data-name="Group 1144650" transform="translate(-1165.999 -3907)">
    <g id="Group_1144636" data-name="Group 1144636" transform="translate(840)">
      <g transform="matrix(1, 0, 0, 1, 326, 3907)" filter="url(#Fondo)">
        <g id="Fondo-2" data-name="Fondo" transform="translate(9 6)" fill="#fff4e4" stroke="#ff9902" stroke-width="3">
          <circle cx="45" cy="45" r="45" stroke="none"/>
          <circle cx="45" cy="45" r="43.5" fill="none"/>
        </g>
      </g>
      <g id="Group_1144633" data-name="Group 1144633" transform="translate(323.662 3931.087)">
        <g id="Group_1144631" data-name="Group 1144631" transform="translate(33.977 0.844)">
          <path id="Path_979653" data-name="Path 979653" d="M125.742,46.637V9.364A1.864,1.864,0,0,0,123.878,7.5H92.2a1.864,1.864,0,0,0-1.864,1.864v1.864l27.126,35.41Z" transform="translate(-84.741 -7.5)" fill="#e2dee2"/>
          <path id="Path_979654" data-name="Path 979654" d="M368.12,7.5h-2.587A1.864,1.864,0,0,1,367.4,9.364V46.637h2.587V9.364A1.864,1.864,0,0,0,368.12,7.5Z" transform="translate(-328.983 -7.5)" fill="#cbc4cc"/>
          <path id="Path_979655" data-name="Path 979655" d="M77.906,51.815l-6.724-3.727-4.458-7.455H42.5A1.864,1.864,0,0,0,40.632,42.5V89.089A1.864,1.864,0,0,0,42.5,90.952h35.41Z" transform="translate(-40.632 -36.906)" fill="#f9f7f8"/>
          <path id="Path_979656" data-name="Path 979656" d="M348.966,167.855h2.587V128.718l-2.587-1.434Z" transform="translate(-314.28 -113.809)" fill="#efedef"/>
          <path id="Path_979657" data-name="Path 979657" d="M156.081,77.494H140.933a.9.9,0,0,1-.9-.9V74.667a.9.9,0,0,1,.9-.9h15.148Z" transform="translate(-128.851 -66.312)" fill="#99e6fc"/>
          <path id="Path_979658" data-name="Path 979658" d="M438.8,118.438h2.588l.3-.3a.931.931,0,0,0,.273-.659V95.118l-1.788-1.493-1.94,1.493v22.365a.932.932,0,0,0,.273.659Z" transform="translate(-393.504 -83.936)" fill="#5a5a5a"/>
          <path id="Path_979659" data-name="Path 979659" d="M249.566,73.767h3.726v3.727h-3.726Z" transform="translate(-226.062 -66.312)" fill="#01d0fb"/>
          <path id="Path_979660" data-name="Path 979660" d="M283.748,51.815H274.43a1.864,1.864,0,0,1-1.864-1.864V40.633Z" transform="translate(-246.474 -36.906)" fill="#f3f0f3"/>
          <g id="Group_1144630" data-name="Group 1144630" transform="translate(22.225 33.415)">
            <circle id="Ellipse_11576" data-name="Ellipse 11576" cx="9.318" cy="9.318" r="9.318" transform="translate(0 13.176) rotate(-45)" fill="#a2e62e"/>
            <path id="Path_979661" data-name="Path 979661" d="M345.193,338.834a9.383,9.383,0,0,0-1.294.091,9.317,9.317,0,0,1,0,18.454,9.318,9.318,0,1,0,1.294-18.545Z" transform="translate(-332.007 -334.975)" fill="#8bc727"/>
            <g id="Group_1144629" data-name="Group 1144629" transform="translate(7.597 8.993)">
              <path id="Path_979662" data-name="Path 979662" d="M310.057,392.731l-4.008-3.4a.932.932,0,0,1-.086-1.34l1.285-1.405a.932.932,0,0,1,1.256-.11l1.585,1.255a.466.466,0,0,0,.591-.019l3.426-3.009a.932.932,0,0,1,1.31.079l1.244,1.392a.932.932,0,0,1-.077,1.319l-5.916,5.23a.466.466,0,0,1-.61.007Z" transform="translate(-305.72 -384.473)" fill="#f9f7f8"/>
            </g>
            <path id="Path_979663" data-name="Path 979663" d="M342.884,386.175l-1.244-1.392a.932.932,0,0,0-1.31-.079l-.755.663.722.807a.932.932,0,0,1-.077,1.319l-4.952,4.378,1.013.859a.466.466,0,0,0,.61-.007l5.916-5.23A.932.932,0,0,0,342.884,386.175Z" transform="translate(-324.346 -375.48)" fill="#efedef"/>
          </g>
          <path id="Path_979664" data-name="Path 979664" d="M444.669,93.624l-.8.615v23.242a.932.932,0,0,1-.273.659l-.3.3.635.635a.932.932,0,0,0,1.318,0l.932-.932a.931.931,0,0,0,.273-.659V95.117Z" transform="translate(-398.001 -83.935)" fill="#444"/>
          <path id="Path_979665" data-name="Path 979665" d="M440.006,57.2a1.9,1.9,0,0,0-1.774,1.914V62.79h3.728V59.064A1.864,1.864,0,0,0,440.006,57.2Z" transform="translate(-393.504 -51.609)" fill="#99e6fc"/>
          <path id="Path_979666" data-name="Path 979666" d="M443.382,57.732a1.857,1.857,0,0,1,.561,1.331V62.79h2.587V59.063a1.864,1.864,0,0,0-1.954-1.862A1.817,1.817,0,0,0,443.382,57.732Z" transform="translate(-398.074 -51.608)" fill="#01d0fb"/>
        </g>
        <g id="Group_1144632" data-name="Group 1144632" transform="translate(33.133 0)">
          <path id="Path_979667" data-name="Path 979667" d="M298.846,383.336l4.008,3.4h0a1.316,1.316,0,0,0,1.714-.018l5.916-5.23a1.776,1.776,0,0,0,.147-2.513l-1.244-1.392a1.781,1.781,0,0,0-2.5-.151l-3.189,2.8-1.333-1.055-.009-.007a1.765,1.765,0,0,0-2.392.21l-1.285,1.405a1.775,1.775,0,0,0,.163,2.553Zm1.083-1.414,1.285-1.405a.089.089,0,0,1,.116-.012l1.578,1.249.009.007a1.312,1.312,0,0,0,1.663-.054l3.425-3.009a.088.088,0,0,1,.124.007l1.244,1.392a.088.088,0,0,1-.007.125l-5.671,5.013-3.758-3.186a.088.088,0,0,1-.008-.127Z" transform="translate(-268.397 -334.58)"/>
          <path id="Path_979668" data-name="Path 979668" d="M75.821,39.576V2.707A2.71,2.71,0,0,0,73.114,0H41.431a2.71,2.71,0,0,0-2.707,2.707v1.02H35.84a2.71,2.71,0,0,0-2.707,2.707V8.193a.844.844,0,0,0,1.687,0V6.435a1.021,1.021,0,0,1,1.02-1.02H59.225v2.04H46.059A1.746,1.746,0,0,0,44.315,9.2v1.927a1.746,1.746,0,0,0,1.744,1.744H59.225v1.02A2.71,2.71,0,0,0,61.932,16.6h8.475V37.325q-.5-.05-1.02-.051a10.121,10.121,0,0,0-5.576,1.665.844.844,0,0,0,.927,1.41A8.471,8.471,0,1,1,62.225,42.9.844.844,0,1,0,60.8,42a10.154,10.154,0,0,0,.875,12.048H35.84a1.021,1.021,0,0,1-1.02-1.02v-40.9a.844.844,0,1,0-1.687,0v40.9a2.71,2.71,0,0,0,2.707,2.707H63.527A10.158,10.158,0,0,0,75.821,39.576ZM46.059,11.182A.056.056,0,0,1,46,11.126V9.2a.056.056,0,0,1,.056-.056H59.225v2.04Zm15.873,3.727a1.021,1.021,0,0,1-1.02-1.02V6.608l8.3,8.3H61.932Zm10.16.84a.842.842,0,0,0-.245-.592L60.665,3.974a.842.842,0,0,0-.593-.245l0,0H40.411V2.707a1.021,1.021,0,0,1,1.02-1.02H73.114a1.021,1.021,0,0,1,1.02,1.02V38.453a10.1,10.1,0,0,0-2.04-.813V15.753l0,0Z" transform="translate(-33.133 0)"/>
          <path id="Path_979669" data-name="Path 979669" d="M74.549,366.211v7.518a1.746,1.746,0,0,0,1.744,1.744h7.518a1.746,1.746,0,0,0,1.744-1.744v-7.518a1.746,1.746,0,0,0-1.744-1.744H76.293A1.746,1.746,0,0,0,74.549,366.211Zm1.687,0a.056.056,0,0,1,.056-.056h7.518a.056.056,0,0,1,.056.056v7.518a.056.056,0,0,1-.056.056H76.293a.056.056,0,0,1-.056-.056Z" transform="translate(-69.89 -323.466)"/>
          <path id="Path_979670" data-name="Path 979670" d="M100.242,401.149a.839.839,0,0,0,.377-.089l3.727-1.864a.844.844,0,0,0-.755-1.509l-3.727,1.864a.844.844,0,0,0,.378,1.6Z" transform="translate(-91.943 -352.87)"/>
          <path id="Path_979671" data-name="Path 979671" d="M83.677,316.454h7.455a.844.844,0,0,0,0-1.687H83.677a.844.844,0,0,0,0,1.687Z" transform="translate(-77.242 -279.357)"/>
          <path id="Path_979672" data-name="Path 979672" d="M83.677,167.354h26.092a.844.844,0,1,0,0-1.687H83.677a.844.844,0,1,0,0,1.687Z" transform="translate(-77.242 -147.03)"/>
          <path id="Path_979673" data-name="Path 979673" d="M83.677,200.487h26.092a.844.844,0,1,0,0-1.687H83.677a.844.844,0,1,0,0,1.687Z" transform="translate(-77.242 -176.436)"/>
          <path id="Path_979674" data-name="Path 979674" d="M83.677,233.62h26.092a.844.844,0,0,0,0-1.687H83.677a.844.844,0,0,0,0,1.687Z" transform="translate(-77.242 -205.842)"/>
          <path id="Path_979675" data-name="Path 979675" d="M166.51,265.067a.844.844,0,0,0,0,1.687h7.455a.844.844,0,1,0,0-1.687Z" transform="translate(-150.757 -235.248)"/>
          <path id="Path_979676" data-name="Path 979676" d="M435.307,50.447a2.682,2.682,0,0,0-2-.745,2.731,2.731,0,0,0-2.578,2.757V78.5a1.765,1.765,0,0,0,.52,1.255l.932.932a1.769,1.769,0,0,0,.412.306v1.234a.844.844,0,0,0,1.687,0V80.991a1.769,1.769,0,0,0,.412-.306l.932-.932a1.764,1.764,0,0,0,.52-1.256V52.406A2.719,2.719,0,0,0,435.307,50.447Zm-2.889,6.53h2.04V74.858h-2.04Zm.97-5.59h.05a1.02,1.02,0,0,1,1.02,1.02v2.883h-2.04V52.459A1.059,1.059,0,0,1,433.388,51.387Zm1.045,27.173-.932.932a.088.088,0,0,1-.125,0l-.932-.932a.089.089,0,0,1-.026-.062V76.545h2.04V78.5A.09.09,0,0,1,434.433,78.56Z" transform="translate(-386.003 -44.107)"/>
        </g>
      </g>
    </g>
  </g>
</svg>
