<svg xmlns="http://www.w3.org/2000/svg" xmlns:xlink="http://www.w3.org/1999/xlink" width="108" height="108" viewBox="0 0 108 108">
  <defs>
    <filter id="Fondo" x="0" y="0" width="108" height="108" filterUnits="userSpaceOnUse">
      <feOffset dy="3" input="SourceAlpha"/>
      <feGaussianBlur stdDeviation="3" result="blur"/>
      <feFlood flood-opacity="0.161"/>
      <feComposite operator="in" in2="blur"/>
      <feComposite in="SourceGraphic"/>
    </filter>
  </defs>
  <g id="Group_1144658" data-name="Group 1144658" transform="translate(-273 -4114)">
    <g id="Group_1144596" data-name="Group 1144596">
      <g transform="matrix(1, 0, 0, 1, 273, 4114)" filter="url(#Fondo)">
        <g id="Fondo-2" data-name="Fondo" transform="translate(9 6)" fill="#fff4e4" stroke="#ff9902" stroke-width="3">
          <circle cx="45" cy="45" r="45" stroke="none"/>
          <circle cx="45" cy="45" r="43.5" fill="none"/>
        </g>
      </g>
      <g id="Group_1144595" data-name="Group 1144595" transform="translate(283.197 4116.124)">
        <rect id="Rectangle_405412" data-name="Rectangle 405412" width="54" height="44" transform="translate(16.803 26.876)" fill="#eb423f"/>
        <rect id="Rectangle_405413" data-name="Rectangle 405413" width="46" height="4" transform="translate(20.803 63.876)" fill="#dadcde"/>
        <path id="Path_979517" data-name="Path 979517" d="M102.338,32V70.924H86.583a7.409,7.409,0,0,0-5.562,2.513q-.193.217-.37.453l-.556.741-.556-.741c-.118-.158-.241-.308-.371-.454a7.408,7.408,0,0,0-5.561-2.512H56V32H73.609a7.409,7.409,0,0,1,5.562,2.513q.193.217.37.453l.556.741.556-.741c.118-.158.241-.308.371-.454A7.408,7.408,0,0,1,86.583,32Z" transform="translate(-35.366 -7.073)" fill="#e9eef2"/>
        <rect id="Rectangle_405414" data-name="Rectangle 405414" width="3" height="8" transform="translate(24.803 50.876)" fill="#c3c6c7"/>
        <rect id="Rectangle_405415" data-name="Rectangle 405415" width="6" height="4" transform="translate(55.803 33.876)" fill="#c3c6c7"/>
        <path id="Path_979518" data-name="Path 979518" d="M104.682,90.194V86.487h-2.124a6.448,6.448,0,0,0-.456-1.128l1.653-1.653-2.78-2.78L99.322,82.58a6.449,6.449,0,0,0-1.128-.456V80H94.487v2.124a6.449,6.449,0,0,0-1.128.456l-1.653-1.653-2.78,2.78L90.58,85.36a6.448,6.448,0,0,0-.456,1.128H88v3.707h2.124a6.448,6.448,0,0,0,.456,1.128l-1.653,1.653,2.78,2.78L93.36,94.1a6.449,6.449,0,0,0,1.128.456v2.124h3.707V94.558a6.449,6.449,0,0,0,1.128-.456l1.653,1.653,2.78-2.78L102.1,91.322a6.448,6.448,0,0,0,.456-1.128Z" transform="translate(-63.659 -49.513)" fill="#3397e8"/>
        <circle id="Ellipse_11566" data-name="Ellipse 11566" cx="2.5" cy="2.5" r="2.5" transform="translate(30.803 36.876)" fill="#e9eef2"/>
        <rect id="Rectangle_405416" data-name="Rectangle 405416" width="3.932" height="9.83" transform="translate(53.998 62.924) rotate(-45)" fill="#2978b8"/>
        <circle id="Ellipse_11567" data-name="Ellipse 11567" cx="13" cy="13" r="13" transform="translate(35.803 41.876)" fill="#3397e8"/>
        <ellipse id="Ellipse_11568" data-name="Ellipse 11568" cx="8.5" cy="9.5" rx="8.5" ry="9.5" transform="translate(39.803 44.876)" fill="#e9eef2"/>
        <path id="Path_979519" data-name="Path 979519" d="M402.194,394.194h0a3.164,3.164,0,0,1-2.237.927h0a3.548,3.548,0,0,1-2.509-1.039L392,388.634,396.634,384l5.448,5.448a3.548,3.548,0,0,1,1.039,2.509h0a3.164,3.164,0,0,1-.927,2.237Z" transform="translate(-332.442 -318.296)" fill="#3397e8"/>
        <path id="Path_979520" data-name="Path 979520" d="M71.606,71.265V26.78a.927.927,0,0,0-.927-.927H67.9v-.927A.927.927,0,0,0,66.972,24H51.217a8.384,8.384,0,0,0-6.487,3.1A8.384,8.384,0,0,0,38.242,24H20.634a.927.927,0,0,0-.927.927v.927h-2.78A.927.927,0,0,0,16,26.78V71.265a.927.927,0,0,0,.927.927H60.1l4.25,4.25a4.446,4.446,0,0,0,3.164,1.311,4.091,4.091,0,0,0,4.091-4.091,4.469,4.469,0,0,0-.329-1.689A.924.924,0,0,0,71.606,71.265ZM69.752,27.707V69.954L67.9,68.1V27.707ZM60.485,68.1,57.5,65.116a14.014,14.014,0,0,0,1.47-1.47l2.985,2.985ZM21.561,64.778H39a13.984,13.984,0,0,0,2.511,1.854H21.561ZM36.389,54.583A12.048,12.048,0,1,1,48.437,66.631,12.048,12.048,0,0,1,36.389,54.583Zm-5.3-10.426a5.535,5.535,0,0,1-.965-.39.927.927,0,0,0-1.082.167l-1,1-1.47-1.47,1-1a.927.927,0,0,0,.167-1.082,5.539,5.539,0,0,1-.39-.965.927.927,0,0,0-.888-.662h-1.2V37.9h1.2a.927.927,0,0,0,.888-.662,5.538,5.538,0,0,1,.39-.965.927.927,0,0,0-.167-1.082l-1-1,1.47-1.47,1,1a.927.927,0,0,0,1.082.167,5.534,5.534,0,0,1,.965-.39.927.927,0,0,0,.662-.888v-1.2h1.854v1.2a.927.927,0,0,0,.662.888,5.535,5.535,0,0,1,.965.39.927.927,0,0,0,1.082-.167l1-1,1.47,1.47-1,1a.927.927,0,0,0-.167,1.082,5.538,5.538,0,0,1,.39.965.927.927,0,0,0,.888.662h1.2v1.854H38.9a.927.927,0,0,0-.888.662,5.538,5.538,0,0,1-.39.965.927.927,0,0,0,.167,1.082l1,1-1.47,1.47-1-1a.927.927,0,0,0-1.082-.167,5.534,5.534,0,0,1-.965.39.927.927,0,0,0-.662.888v1.2H31.755v-1.2a.927.927,0,0,0-.662-.888ZM56,66.24l.391.391H55.366Q55.69,66.444,56,66.24Zm7.534-1.191-.271.271-.543-.543h3.323v1.47l-1.2-1.2a.927.927,0,0,0-1.311,0Zm-12.319-39.2H66.045V62.924H60.869l-.775-.775a13.873,13.873,0,0,0-.543-15.907h1.861a.927.927,0,1,0,0-1.854H57.877a13.984,13.984,0,0,0-2.511-1.854h6.045a.927.927,0,1,0,0-1.854H48.437a13.91,13.91,0,0,0-2.78.28V28.943l.371-.494A6.518,6.518,0,0,1,51.217,25.854Zm-12.975,0a6.518,6.518,0,0,1,5.19,2.595l.371.494V41.477a13.858,13.858,0,0,0-2.945,1.458.928.928,0,0,0-.106-.129l-1.2-1.2h1.468a.927.927,0,0,0,.927-.927V36.975a.927.927,0,0,0-.927-.927H39.555l1.2-1.2a.927.927,0,0,0,0-1.311l-2.78-2.78a.927.927,0,0,0-1.311,0l-1.2,1.2h0V30.487a.927.927,0,0,0-.927-.927H30.828a.927.927,0,0,0-.927.927v1.468h0l-1.2-1.2a.927.927,0,0,0-1.311,0l-2.78,2.78a.927.927,0,0,0,0,1.311l1.2,1.2H24.341a.927.927,0,0,0-.927.927v3.707a.927.927,0,0,0,.927.927h1.468l-1.2,1.2a.927.927,0,0,0,0,1.311l2.78,2.78a.927.927,0,0,0,1.311,0l1.2-1.2h0v1.468a.927.927,0,0,0,.927.927h3.707a.927.927,0,0,0,.927-.927V45.7h0l1.2,1.2a.933.933,0,0,0,.129.106,13.858,13.858,0,0,0-1.458,2.945H33.609a.927.927,0,0,0,0,1.854h1.206a13.857,13.857,0,0,0-.248,1.854H31.755a.927.927,0,0,0,0,1.854h2.812a13.857,13.857,0,0,0,.248,1.854h-3.06a.927.927,0,0,0,0,1.854H35.33a13.886,13.886,0,0,0,1.993,3.707H21.561V25.854ZM17.854,70.338V27.707h1.854V67.558a.927.927,0,0,0,.927.927H58.247l.927.927-.271.271a.924.924,0,0,0-.271.655ZM69.1,75.243a2.223,2.223,0,0,1-1.582.655,2.6,2.6,0,0,1-1.854-.768l-4.793-4.793,3.323-3.323,4.793,4.793a2.6,2.6,0,0,1,.768,1.854A2.223,2.223,0,0,1,69.1,75.243Z"/>
        <path id="Path_979521" data-name="Path 979521" d="M80.927,257.268h3.707a.927.927,0,0,0,.927-.927v-7.414a.927.927,0,0,0-.927-.927H80.927a.927.927,0,0,0-.927.927v7.414A.927.927,0,0,0,80.927,257.268Zm.927-7.414h1.854v5.561H81.854Z" transform="translate(-56.586 -198.051)"/>
        <path id="Path_979522" data-name="Path 979522" d="M304.927,73.854h1.854a.927.927,0,1,0,0-1.854h-1.854a.927.927,0,0,0,0,1.854Z" transform="translate(-254.637 -42.439)"/>
        <path id="Path_979523" data-name="Path 979523" d="M352.927,73.854h5.561a.927.927,0,0,0,0-1.854h-5.561a.927.927,0,0,0,0,1.854Z" transform="translate(-297.076 -42.439)"/>
        <path id="Path_979524" data-name="Path 979524" d="M288.927,105.854h3.707a.927.927,0,1,0,0-1.854h-3.707a.927.927,0,0,0,0,1.854Z" transform="translate(-240.49 -70.732)"/>
        <path id="Path_979525" data-name="Path 979525" d="M288.927,137.854h3.707a.927.927,0,1,0,0-1.854h-3.707a.927.927,0,0,0,0,1.854Z" transform="translate(-240.49 -99.025)"/>
        <path id="Path_979526" data-name="Path 979526" d="M352.927,109.561h5.561a.927.927,0,0,0,.927-.927v-3.707a.927.927,0,0,0-.927-.927h-5.561a.927.927,0,0,0-.927.927v3.707A.927.927,0,0,0,352.927,109.561Zm.927-3.707h3.707v1.854h-3.707Z" transform="translate(-297.076 -70.732)"/>
        <path id="Path_979527" data-name="Path 979527" d="M218.194,200a10.194,10.194,0,1,0,10.194,10.194A10.194,10.194,0,0,0,218.194,200Zm0,18.535a8.341,8.341,0,1,1,8.341-8.341A8.341,8.341,0,0,1,218.194,218.535Z" transform="translate(-169.758 -155.611)"/>
        <path id="Path_979528" data-name="Path 979528" d="M135.414,123.707a3.707,3.707,0,1,0-3.707,3.707A3.707,3.707,0,0,0,135.414,123.707Zm-5.561,0a1.854,1.854,0,1,1,1.854,1.854A1.854,1.854,0,0,1,129.854,123.707Z" transform="translate(-99.025 -84.879)"/>
      </g>
    </g>
  </g>
</svg>
