<svg xmlns="http://www.w3.org/2000/svg" xmlns:xlink="http://www.w3.org/1999/xlink" width="108" height="108" viewBox="0 0 108 108">
  <defs>
    <filter id="Fondo" x="0" y="0" width="108" height="108" filterUnits="userSpaceOnUse">
      <feOffset dy="3" input="SourceAlpha"/>
      <feGaussianBlur stdDeviation="3" result="blur"/>
      <feFlood flood-opacity="0.161"/>
      <feComposite operator="in" in2="blur"/>
      <feComposite in="SourceGraphic"/>
    </filter>
  </defs>
  <g id="Group_1144668" data-name="Group 1144668" transform="translate(-745.999 -1077)">
    <g id="Group_1144609" data-name="Group 1144609">
      <g transform="matrix(1, 0, 0, 1, 746, 1077)" filter="url(#Fondo)">
        <g id="Fondo-2" data-name="Fondo" transform="translate(9 6)" fill="#ffeacb" stroke="#ff9902" stroke-width="3">
          <circle cx="45" cy="45" r="45" stroke="none"/>
          <circle cx="45" cy="45" r="43.5" fill="none"/>
        </g>
      </g>
      <g id="Group_1144608" data-name="Group 1144608" transform="translate(769.913 1097.914)">
        <circle id="Ellipse_11571" data-name="Ellipse 11571" cx="5.5" cy="5.5" r="5.5" transform="translate(6.086 2.086)" fill="#f0d0b4"/>
        <ellipse id="Ellipse_11572" data-name="Ellipse 11572" cx="6" cy="5.5" rx="6" ry="5.5" transform="translate(24.086 2.086)" fill="#f0d0b4"/>
        <path id="Path_979569" data-name="Path 979569" d="M36.074,27.136H22V23.383a9.383,9.383,0,0,1,18.765,0v3.753Z" transform="translate(-1.296 -0.802)" fill="#b4dd7f"/>
        <path id="Path_979570" data-name="Path 979570" d="M16.074,27.136H2V23.383a9.383,9.383,0,1,1,18.765,0v3.753Z" transform="translate(-0.062 -0.802)" fill="#ff826e"/>
        <path id="Path_979571" data-name="Path 979571" d="M59.361,15.651a5.577,5.577,0,0,1,1.651,3.978,5.634,5.634,0,0,1-5.63,5.63H46V19.63A5.634,5.634,0,0,1,51.63,14h3.753a5.577,5.577,0,0,1,3.978,1.651Z" transform="translate(-2.778 -0.802)" fill="#fcd770"/>
        <path id="Path_979572" data-name="Path 979572" d="M25.137,48.444h3.819a7.508,7.508,0,1,1-.948-4.691H24.79a2.3,2.3,0,0,0-1.426.488,3.756,3.756,0,1,0,1.773,4.2Z" transform="translate(-0.802 -2.407)" fill="#fcd770"/>
        <path id="Path_979573" data-name="Path 979573" d="M54.9,60.889H39.889V51.037a2.347,2.347,0,0,0-2.346-2.346h-12.2A2.339,2.339,0,0,1,23,46.346,2.355,2.355,0,0,1,25.346,44H50.21a9.386,9.386,0,0,1,9.383,9.383v7.506Z" transform="translate(-1.358 -2.654)" fill="#e6e9ed"/>
        <ellipse id="Ellipse_11573" data-name="Ellipse 11573" cx="7" cy="6.5" rx="7" ry="6.5" transform="translate(39.086 28.086)" fill="#f0d0b4"/>
        <path id="Path_979574" data-name="Path 979574" d="M34.272,48.074v1.877l-2.4.591a11.287,11.287,0,0,1-.741,1.764l1.285,2.13-3.978,3.978-2.13-1.285a11.287,11.287,0,0,1-1.764.741l-.591,2.4h-5.63l-.591-2.4a11.287,11.287,0,0,1-1.764-.741l-2.13,1.285L9.858,54.436l1.285-2.13a11.287,11.287,0,0,1-.741-1.764L8,49.951v-5.63l2.4-.591a11.287,11.287,0,0,1,.741-1.764l-1.285-2.13,2.083-2.083,1.9-1.9,2.13,1.285A11.287,11.287,0,0,1,17.73,36.4l.591-2.4h5.63l.591,2.4a11.287,11.287,0,0,1,1.764.741l2.13-1.285,1.9,1.9,2.083,2.083-1.285,2.13a10.61,10.61,0,0,1,.619,1.417h-4.11a7.505,7.505,0,1,0,.948,4.691Z" transform="translate(-0.432 -2.037)" fill="#ffc729"/>
        <path id="Path_979575" data-name="Path 979575" d="M50.774,40.594a7.511,7.511,0,1,0-9.686-.187H31.945c-.062-.145-.113-.292-.18-.437l1.4-2.313-1-1H33.84a2.818,2.818,0,0,0,2.815-2.815V31.963a2.818,2.818,0,0,0-2.815-2.815H31.963a.939.939,0,0,1-.938-.938v-.938h9.383V22.58a10.329,10.329,0,0,0-6.591-9.613,6.568,6.568,0,1,0-7.459,0A10.366,10.366,0,0,0,20.7,18.305a10.363,10.363,0,0,0-5.653-5.338,6.568,6.568,0,1,0-7.459,0A10.329,10.329,0,0,0,1,22.58v4.691h9.383v.938a.939.939,0,0,1-.938.938H7.568a2.818,2.818,0,0,0-2.815,2.815V33.84a2.818,2.818,0,0,0,2.815,2.815H9.245l-1,1,1.4,2.313q-.217.466-.39.934l-2.622.645v7.1l2.622.645q.173.467.39.934l-1.4,2.313,5.022,5.022,2.313-1.4c.31.144.622.275.934.39l.644,2.621h7.1l.645-2.622q.467-.173.934-.39l2.313,1.4,5.022-5.022-1.4-2.313c.144-.31.275-.622.39-.934l2.621-.644V46.975h1.407a1.409,1.409,0,0,1,1.407,1.407v10.79h21.58V50.728A10.333,10.333,0,0,0,50.774,40.594ZM40.407,34.778a5.63,5.63,0,1,1,5.63,5.63A5.635,5.635,0,0,1,40.407,34.778ZM25.4,7.568a4.691,4.691,0,1,1,4.691,4.691A4.7,4.7,0,0,1,25.4,7.568Zm4.691,6.568a8.454,8.454,0,0,1,8.444,8.444V25.4H35.716V17.889H33.84V25.4H26.333V17.889H24.457V25.4H21.642V22.58A8.454,8.454,0,0,1,30.086,14.136ZM6.63,7.568a4.691,4.691,0,1,1,4.691,4.691A4.7,4.7,0,0,1,6.63,7.568ZM2.877,22.58a8.444,8.444,0,0,1,16.889,0V25.4H16.951V17.889H15.074V25.4H7.568V17.889H5.691V25.4H2.877Zm4.691,12.2a.939.939,0,0,1-.938-.938V31.963a.939.939,0,0,1,.938-.938H9.444a2.818,2.818,0,0,0,2.815-2.815v-.938H29.148v.938a2.818,2.818,0,0,0,2.815,2.815H33.84a.939.939,0,0,1,.938.938V33.84a.939.939,0,0,1-.938.938H30.286l-2.141-2.141-2.313,1.4q-.466-.217-.934-.39l-.645-2.622h-7.1l-.645,2.622q-.467.173-.934.39l-2.313-1.4-2.141,2.141ZM32.9,47.178l-2.2.541-.16.5a10.261,10.261,0,0,1-.678,1.62l-.243.467L30.8,52.254l-2.94,2.94-1.946-1.178-.467.243a10.221,10.221,0,0,1-1.619.677l-.5.159-.54,2.2H18.624l-.541-2.2-.5-.16a10.261,10.261,0,0,1-1.62-.678l-.467-.243-1.946,1.178-2.94-2.94,1.178-1.946-.243-.467a10.222,10.222,0,0,1-.677-1.619l-.159-.5-2.2-.54V43.02l2.2-.541.159-.5a10.3,10.3,0,0,1,.677-1.619l.243-.467L10.61,37.944,13.549,35,15.5,36.181l.467-.243a10.222,10.222,0,0,1,1.619-.677l.5-.159.54-2.2h4.158l.541,2.2.5.159a10.3,10.3,0,0,1,1.619.677l.467.243L27.859,35l2.94,2.94L29.621,39.89l.243.467.024.051H27.7a8.424,8.424,0,1,0,1.234,6.567H32.9Zm-9.956-.388A2.812,2.812,0,1,1,20.7,42.284a2.631,2.631,0,0,1,.308.04,3.239,3.239,0,0,0-.308,1.367,3.277,3.277,0,0,0,2.242,3.1Zm-.431-6.017A4.691,4.691,0,1,0,25,46.975H27a6.574,6.574,0,1,1-1.7-6.568H23.988a3.249,3.249,0,0,0-1.473.365ZM57.3,57.3H54.481V46.975H52.6V57.3H39.469V48.383A3.288,3.288,0,0,0,36.185,45.1h-12.2a1.407,1.407,0,1,1,0-2.815H48.852A8.454,8.454,0,0,1,57.3,50.728Z"/>
        <path id="Path_979576" data-name="Path 979576" d="M61.889,19.568A6.576,6.576,0,0,0,55.321,13H51.568A6.576,6.576,0,0,0,45,19.568v6.568H55.321A6.576,6.576,0,0,0,61.889,19.568Zm-15.012,0a4.7,4.7,0,0,1,4.691-4.691h3.753a4.691,4.691,0,1,1,0,9.383H46.877Z" transform="translate(-2.716 -0.741)"/>
        <path id="Path_979577" data-name="Path 979577" d="M49,21h1.877v1.877H49Z" transform="translate(-2.963 -1.235)"/>
        <path id="Path_979578" data-name="Path 979578" d="M53,21h1.877v1.877H53Z" transform="translate(-3.21 -1.235)"/>
        <path id="Path_979579" data-name="Path 979579" d="M57,21h1.877v1.877H57Z" transform="translate(-3.457 -1.235)"/>
        <path id="Path_979580" data-name="Path 979580" d="M49,17h9.383v1.877H49Z" transform="translate(-2.963 -0.988)"/>
      </g>
    </g>
  </g>
</svg>
