<svg xmlns="http://www.w3.org/2000/svg" xmlns:xlink="http://www.w3.org/1999/xlink" width="108" height="108" viewBox="0 0 108 108">
  <defs>
    <filter id="Fondo" x="0" y="0" width="108" height="108" filterUnits="userSpaceOnUse">
      <feOffset dy="3" input="SourceAlpha"/>
      <feGaussianBlur stdDeviation="3" result="blur"/>
      <feFlood flood-opacity="0.161"/>
      <feComposite operator="in" in2="blur"/>
      <feComposite in="SourceGraphic"/>
    </filter>
  </defs>
  <g id="Group_1144660" data-name="Group 1144660" transform="translate(-903 -4114)">
    <g id="Group_1144591" data-name="Group 1144591">
      <g transform="matrix(1, 0, 0, 1, 903, 4114)" filter="url(#Fondo)">
        <g id="Fondo-2" data-name="Fondo" transform="translate(9 6)" fill="#fff4e4" stroke="#ff9902" stroke-width="3">
          <circle cx="45" cy="45" r="45" stroke="none"/>
          <circle cx="45" cy="45" r="43.5" fill="none"/>
        </g>
      </g>
      <g id="Group_1144590" data-name="Group 1144590" transform="translate(931.766 4134.246)">
        <g id="b" transform="translate(2.439 2.422)">
          <g id="Group_1144588" data-name="Group 1144588">
            <path id="Path_979474" data-name="Path 979474" d="M2,7H39.564V50.2H2Z" transform="translate(-2 2.391)" fill="#f2f2f3"/>
            <path id="Path_979475" data-name="Path 979475" d="M12.846,5.756a2.594,2.594,0,0,1-.15-.939,2.817,2.817,0,1,1,5.635,0,3.073,3.073,0,0,1-.15.939h4.846V9.513H8V5.756Z" transform="translate(3.269 -2)" fill="#d22632" fill-rule="evenodd"/>
            <path id="Path_979476" data-name="Path 979476" d="M7,6H25.782V9.756H7Z" transform="translate(2.391 1.513)" fill="#15becc"/>
            <circle id="Ellipse_11565" data-name="Ellipse 11565" cx="15.026" cy="15.026" r="15.026" transform="translate(22.538 18.782)" fill="#15becc"/>
            <g id="Group_1144587" data-name="Group 1144587" transform="translate(3.756 15.026)">
              <path id="Path_979477" data-name="Path 979477" d="M25.513,32.782a1.878,1.878,0,1,0,1.878,1.878A1.884,1.884,0,0,0,25.513,32.782Zm0-18.782A7.511,7.511,0,0,0,18,21.513h3.756a3.756,3.756,0,1,1,3.756,3.756H23.635v4.752h3.756v-1.24A7.51,7.51,0,0,0,25.513,14Z" transform="translate(8.295 -6.487)" fill="#f2f2f3" fill-rule="evenodd"/>
              <path id="Path_979478" data-name="Path 979478" d="M4,38.173v5.635H9.635V38.173Zm0-9.391v5.635H9.635V28.782Zm0-9.391v5.635H9.635V19.391ZM4,10v5.635H9.635V10Z" transform="translate(-4 -10)" fill="#fdba27" fill-rule="evenodd"/>
            </g>
          </g>
        </g>
        <g id="c" transform="translate(1.5 1.52)">
          <g id="Group_1144589" data-name="Group 1144589">
            <path id="Path_979479" data-name="Path 979479" d="M2.439,55.987H40a.93.93,0,0,0,.939-.939V52.175A15.928,15.928,0,0,0,53.751,28.153a.934.934,0,0,0-1.615.939,14.091,14.091,0,1,1-5-5,.934.934,0,0,0,.939-1.615A16.033,16.033,0,0,0,40.9,20.3V11.85a.93.93,0,0,0-.939-.939H31.513V9.972a.93.93,0,0,0-.939-.939h-.939V6.215a.93.93,0,0,0-.939-.939H24.94a3.756,3.756,0,0,0-7.513,0H13.671a.93.93,0,0,0-.939.939V9.033h-.939a.93.93,0,0,0-.939.939v.939H2.439a.93.93,0,0,0-.939.939v43.2a.93.93,0,0,0,.939.939M14.647,7.155h3.907a.979.979,0,0,0,.77-.394.936.936,0,0,0,.113-.864,1.726,1.726,0,0,1-.113-.62,1.878,1.878,0,1,1,3.756,0,1.908,1.908,0,0,1-.113.639.962.962,0,0,0,.113.845.952.952,0,0,0,.77.394h3.907V9.033H14.61V7.155Zm-1.878,3.756h16.9v1.878h-16.9ZM3.378,12.789h7.513v.939a.93.93,0,0,0,.939.939H30.612a.93.93,0,0,0,.939-.939v-.939h7.513v7.55a15.973,15.973,0,0,0-10.349,4.639,14.994,14.994,0,0,0-1.6,1.9H15.586a.939.939,0,1,0,0,1.878h10.33a16.863,16.863,0,0,0-.845,1.878h-9.5a.939.939,0,1,0,0,1.878h8.921a15.952,15.952,0,0,0-.47,3.756H15.568a.939.939,0,1,0,0,1.878h8.583a15.726,15.726,0,0,0,.338,1.878H15.568a.939.939,0,0,0,0,1.878h9.5A16.206,16.206,0,0,0,27.1,45.657H15.568a.939.939,0,1,0,0,1.878H28.7a15.819,15.819,0,0,0,10.349,4.639v1.935H3.378Z" transform="translate(-1.5 -1.52)"/>
            <path id="Path_979480" data-name="Path 979480" d="M28.759,15.465a.943.943,0,0,0-1.334-1.334.943.943,0,0,0,1.334,1.334" transform="translate(21.032 9.308)"/>
            <path id="Path_979481" data-name="Path 979481" d="M23.317,23.52a2.817,2.817,0,1,0,2.817,2.817,2.814,2.814,0,0,0-2.817-2.817m0,3.756a.939.939,0,1,1,.939-.939.93.93,0,0,1-.939.939" transform="translate(15.186 17.8)"/>
            <path id="Path_979482" data-name="Path 979482" d="M28.769,29.935A8.45,8.45,0,1,0,17.5,21.972a.93.93,0,0,0,.939.939H22.2a.93.93,0,0,0,.939-.939,2.817,2.817,0,1,1,2.817,2.817H24.074a.942.942,0,0,0-.939.939V30.48a.93.93,0,0,0,.939.939H27.83a.93.93,0,0,0,.939-.939v-.526Zm-1.164-1.6a.959.959,0,0,0-.714.9v.282H25.013V26.649h.939a4.7,4.7,0,1,0-4.6-5.635h-1.9A6.57,6.57,0,1,1,27.6,28.32" transform="translate(12.551 9.018)"/>
            <path id="Path_979483" data-name="Path 979483" d="M10.074,9.52H4.439a.93.93,0,0,0-.939.939v5.635a.93.93,0,0,0,.939.939h5.635a.93.93,0,0,0,.939-.939V10.459a.93.93,0,0,0-.939-.939m-.939,5.635H5.378V11.4H9.135Z" transform="translate(0.256 5.506)"/>
            <path id="Path_979484" data-name="Path 979484" d="M10.074,14.52H4.439a.93.93,0,0,0-.939.939v5.635a.93.93,0,0,0,.939.939h5.635a.93.93,0,0,0,.939-.939V15.459a.93.93,0,0,0-.939-.939m-.939,5.635H5.378V16.4H9.135Z" transform="translate(0.256 9.896)"/>
            <path id="Path_979485" data-name="Path 979485" d="M10.074,19.52H4.439a.93.93,0,0,0-.939.939v5.635a.93.93,0,0,0,.939.939h5.635a.93.93,0,0,0,.939-.939V20.459a.93.93,0,0,0-.939-.939m-.939,5.635H5.378V21.4H9.135Z" transform="translate(0.256 14.287)"/>
            <path id="Path_979486" data-name="Path 979486" d="M10.074,24.52H4.439a.93.93,0,0,0-.939.939v5.635a.93.93,0,0,0,.939.939h5.635a.93.93,0,0,0,.939-.939V25.459a.93.93,0,0,0-.939-.939m-.939,5.635H5.378V26.4H9.135Z" transform="translate(0.256 18.678)"/>
            <path id="Path_979487" data-name="Path 979487" d="M9.439,11.9H30.1a.939.939,0,1,0,0-1.878H9.439a.939.939,0,1,0,0,1.878" transform="translate(4.647 5.945)"/>
            <path id="Path_979488" data-name="Path 979488" d="M9.439,13.9l13.147.075a.939.939,0,0,0,0-1.878L9.439,12.02a.939.939,0,1,0,0,1.878" transform="translate(4.647 7.701)"/>
            <path id="Path_979489" data-name="Path 979489" d="M20.708,27.02H9.439a.939.939,0,1,0,0,1.878H20.708a.939.939,0,0,0,0-1.878" transform="translate(4.647 20.874)"/>
          </g>
        </g>
      </g>
    </g>
  </g>
</svg>
